<?xml version="1.0" encoding="utf-8" standalone="no"?>
<!DOCTYPE svg PUBLIC "-//W3C//DTD SVG 1.1//EN"
  "http://www.w3.org/Graphics/SVG/1.1/DTD/svg11.dtd">
<svg height="648pt" version="1.1" viewBox="0 0 576 648" width="576pt" xmlns="http://www.w3.org/2000/svg" xmlns:xlink="http://www.w3.org/1999/xlink">
 <metadata>
  <rdf:RDF xmlns:cc="http://creativecommons.org/ns#" xmlns:dc="http://purl.org/dc/elements/1.1/" xmlns:rdf="http://www.w3.org/1999/02/22-rdf-syntax-ns#">
   <cc:Work>
    <dc:type rdf:resource="http://purl.org/dc/dcmitype/StillImage"/>
    <dc:date>2021-12-09T11:38:08.936521</dc:date>
    <dc:format>image/svg+xml</dc:format>
    <dc:creator>
     <cc:Agent>
      <dc:title>Matplotlib v3.4.3, https://matplotlib.org/</dc:title>
     </cc:Agent>
    </dc:creator>
   </cc:Work>
  </rdf:RDF>
 </metadata>
 <defs>
  <style type="text/css">*{stroke-linecap:butt;stroke-linejoin:round;}</style>
 </defs>
 <g id="figure_1">
  <g id="patch_1">
   <path d="M 0 648 
L 576 648 
L 576 0 
L 0 0 
z
" style="fill:#ffffff;"/>
  </g>
  <g id="axes_1">
   <g id="patch_2">
    <path d="M 38.57777 190.135425 
L 273.080876 190.135425 
L 273.080876 25.64098 
L 38.57777 25.64098 
z
" style="fill:#ffffff;"/>
   </g>
   <g id="matplotlib.axis_1">
    <g id="xtick_1">
     <g id="line2d_1">
      <defs>
       <path d="M 0 0 
L 0 3.5 
" id="m58652419b0" style="stroke:#000000;stroke-width:0.8;"/>
      </defs>
      <g>
       <use style="stroke:#000000;stroke-width:0.8;" x="38.57777" xlink:href="#m58652419b0" y="190.135425"/>
      </g>
     </g>
     <g id="text_1">
      <!-- 175 -->
      <g transform="translate(29.03402 204.733862)scale(0.1 -0.1)">
       <defs>
        <path d="M 794 531 
L 1825 531 
L 1825 4091 
L 703 3866 
L 703 4441 
L 1819 4666 
L 2450 4666 
L 2450 531 
L 3481 531 
L 3481 0 
L 794 0 
L 794 531 
z
" id="DejaVuSans-31" transform="scale(0.015625)"/>
        <path d="M 525 4666 
L 3525 4666 
L 3525 4397 
L 1831 0 
L 1172 0 
L 2766 4134 
L 525 4134 
L 525 4666 
z
" id="DejaVuSans-37" transform="scale(0.015625)"/>
        <path d="M 691 4666 
L 3169 4666 
L 3169 4134 
L 1269 4134 
L 1269 2991 
Q 1406 3038 1543 3061 
Q 1681 3084 1819 3084 
Q 2600 3084 3056 2656 
Q 3513 2228 3513 1497 
Q 3513 744 3044 326 
Q 2575 -91 1722 -91 
Q 1428 -91 1123 -41 
Q 819 9 494 109 
L 494 744 
Q 775 591 1075 516 
Q 1375 441 1709 441 
Q 2250 441 2565 725 
Q 2881 1009 2881 1497 
Q 2881 1984 2565 2268 
Q 2250 2553 1709 2553 
Q 1456 2553 1204 2497 
Q 953 2441 691 2322 
L 691 4666 
z
" id="DejaVuSans-35" transform="scale(0.015625)"/>
       </defs>
       <use xlink:href="#DejaVuSans-31"/>
       <use x="63.623047" xlink:href="#DejaVuSans-37"/>
       <use x="127.246094" xlink:href="#DejaVuSans-35"/>
      </g>
     </g>
    </g>
    <g id="xtick_2">
     <g id="line2d_2">
      <g>
       <use style="stroke:#000000;stroke-width:0.8;" x="72.078213" xlink:href="#m58652419b0" y="190.135425"/>
      </g>
     </g>
     <g id="text_2">
      <!-- 200 -->
      <g transform="translate(62.534463 204.733862)scale(0.1 -0.1)">
       <defs>
        <path d="M 1228 531 
L 3431 531 
L 3431 0 
L 469 0 
L 469 531 
Q 828 903 1448 1529 
Q 2069 2156 2228 2338 
Q 2531 2678 2651 2914 
Q 2772 3150 2772 3378 
Q 2772 3750 2511 3984 
Q 2250 4219 1831 4219 
Q 1534 4219 1204 4116 
Q 875 4013 500 3803 
L 500 4441 
Q 881 4594 1212 4672 
Q 1544 4750 1819 4750 
Q 2544 4750 2975 4387 
Q 3406 4025 3406 3419 
Q 3406 3131 3298 2873 
Q 3191 2616 2906 2266 
Q 2828 2175 2409 1742 
Q 1991 1309 1228 531 
z
" id="DejaVuSans-32" transform="scale(0.015625)"/>
        <path d="M 2034 4250 
Q 1547 4250 1301 3770 
Q 1056 3291 1056 2328 
Q 1056 1369 1301 889 
Q 1547 409 2034 409 
Q 2525 409 2770 889 
Q 3016 1369 3016 2328 
Q 3016 3291 2770 3770 
Q 2525 4250 2034 4250 
z
M 2034 4750 
Q 2819 4750 3233 4129 
Q 3647 3509 3647 2328 
Q 3647 1150 3233 529 
Q 2819 -91 2034 -91 
Q 1250 -91 836 529 
Q 422 1150 422 2328 
Q 422 3509 836 4129 
Q 1250 4750 2034 4750 
z
" id="DejaVuSans-30" transform="scale(0.015625)"/>
       </defs>
       <use xlink:href="#DejaVuSans-32"/>
       <use x="63.623047" xlink:href="#DejaVuSans-30"/>
       <use x="127.246094" xlink:href="#DejaVuSans-30"/>
      </g>
     </g>
    </g>
    <g id="xtick_3">
     <g id="line2d_3">
      <g>
       <use style="stroke:#000000;stroke-width:0.8;" x="105.578657" xlink:href="#m58652419b0" y="190.135425"/>
      </g>
     </g>
     <g id="text_3">
      <!-- 225 -->
      <g transform="translate(96.034907 204.733862)scale(0.1 -0.1)">
       <use xlink:href="#DejaVuSans-32"/>
       <use x="63.623047" xlink:href="#DejaVuSans-32"/>
       <use x="127.246094" xlink:href="#DejaVuSans-35"/>
      </g>
     </g>
    </g>
    <g id="xtick_4">
     <g id="line2d_4">
      <g>
       <use style="stroke:#000000;stroke-width:0.8;" x="139.079101" xlink:href="#m58652419b0" y="190.135425"/>
      </g>
     </g>
     <g id="text_4">
      <!-- 250 -->
      <g transform="translate(129.535351 204.733862)scale(0.1 -0.1)">
       <use xlink:href="#DejaVuSans-32"/>
       <use x="63.623047" xlink:href="#DejaVuSans-35"/>
       <use x="127.246094" xlink:href="#DejaVuSans-30"/>
      </g>
     </g>
    </g>
    <g id="xtick_5">
     <g id="line2d_5">
      <g>
       <use style="stroke:#000000;stroke-width:0.8;" x="172.579545" xlink:href="#m58652419b0" y="190.135425"/>
      </g>
     </g>
     <g id="text_5">
      <!-- 275 -->
      <g transform="translate(163.035795 204.733862)scale(0.1 -0.1)">
       <use xlink:href="#DejaVuSans-32"/>
       <use x="63.623047" xlink:href="#DejaVuSans-37"/>
       <use x="127.246094" xlink:href="#DejaVuSans-35"/>
      </g>
     </g>
    </g>
    <g id="xtick_6">
     <g id="line2d_6">
      <g>
       <use style="stroke:#000000;stroke-width:0.8;" x="206.079989" xlink:href="#m58652419b0" y="190.135425"/>
      </g>
     </g>
     <g id="text_6">
      <!-- 300 -->
      <g transform="translate(196.536239 204.733862)scale(0.1 -0.1)">
       <defs>
        <path d="M 2597 2516 
Q 3050 2419 3304 2112 
Q 3559 1806 3559 1356 
Q 3559 666 3084 287 
Q 2609 -91 1734 -91 
Q 1441 -91 1130 -33 
Q 819 25 488 141 
L 488 750 
Q 750 597 1062 519 
Q 1375 441 1716 441 
Q 2309 441 2620 675 
Q 2931 909 2931 1356 
Q 2931 1769 2642 2001 
Q 2353 2234 1838 2234 
L 1294 2234 
L 1294 2753 
L 1863 2753 
Q 2328 2753 2575 2939 
Q 2822 3125 2822 3475 
Q 2822 3834 2567 4026 
Q 2313 4219 1838 4219 
Q 1578 4219 1281 4162 
Q 984 4106 628 3988 
L 628 4550 
Q 988 4650 1302 4700 
Q 1616 4750 1894 4750 
Q 2613 4750 3031 4423 
Q 3450 4097 3450 3541 
Q 3450 3153 3228 2886 
Q 3006 2619 2597 2516 
z
" id="DejaVuSans-33" transform="scale(0.015625)"/>
       </defs>
       <use xlink:href="#DejaVuSans-33"/>
       <use x="63.623047" xlink:href="#DejaVuSans-30"/>
       <use x="127.246094" xlink:href="#DejaVuSans-30"/>
      </g>
     </g>
    </g>
    <g id="xtick_7">
     <g id="line2d_7">
      <g>
       <use style="stroke:#000000;stroke-width:0.8;" x="239.580432" xlink:href="#m58652419b0" y="190.135425"/>
      </g>
     </g>
     <g id="text_7">
      <!-- 325 -->
      <g transform="translate(230.036682 204.733862)scale(0.1 -0.1)">
       <use xlink:href="#DejaVuSans-33"/>
       <use x="63.623047" xlink:href="#DejaVuSans-32"/>
       <use x="127.246094" xlink:href="#DejaVuSans-35"/>
      </g>
     </g>
    </g>
    <g id="xtick_8">
     <g id="line2d_8">
      <g>
       <use style="stroke:#000000;stroke-width:0.8;" x="273.080876" xlink:href="#m58652419b0" y="190.135425"/>
      </g>
     </g>
     <g id="text_8">
      <!-- 350 -->
      <g transform="translate(263.537126 204.733862)scale(0.1 -0.1)">
       <use xlink:href="#DejaVuSans-33"/>
       <use x="63.623047" xlink:href="#DejaVuSans-35"/>
       <use x="127.246094" xlink:href="#DejaVuSans-30"/>
      </g>
     </g>
    </g>
   </g>
   <g id="matplotlib.axis_2">
    <g id="ytick_1">
     <g id="line2d_9">
      <defs>
       <path d="M 0 0 
L -3.5 0 
" id="m96e9b73684" style="stroke:#000000;stroke-width:0.8;"/>
      </defs>
      <g>
       <use style="stroke:#000000;stroke-width:0.8;" x="38.57777" xlink:href="#m96e9b73684" y="190.135425"/>
      </g>
     </g>
     <g id="text_9">
      <!-- 0 -->
      <g transform="translate(25.21527 193.934644)scale(0.1 -0.1)">
       <use xlink:href="#DejaVuSans-30"/>
      </g>
     </g>
    </g>
    <g id="ytick_2">
     <g id="line2d_10">
      <g>
       <use style="stroke:#000000;stroke-width:0.8;" x="38.57777" xlink:href="#m96e9b73684" y="157.236536"/>
      </g>
     </g>
     <g id="text_10">
      <!-- 1 -->
      <g transform="translate(25.21527 161.035755)scale(0.1 -0.1)">
       <use xlink:href="#DejaVuSans-31"/>
      </g>
     </g>
    </g>
    <g id="ytick_3">
     <g id="line2d_11">
      <g>
       <use style="stroke:#000000;stroke-width:0.8;" x="38.57777" xlink:href="#m96e9b73684" y="124.337647"/>
      </g>
     </g>
     <g id="text_11">
      <!-- 2 -->
      <g transform="translate(25.21527 128.136866)scale(0.1 -0.1)">
       <use xlink:href="#DejaVuSans-32"/>
      </g>
     </g>
    </g>
    <g id="ytick_4">
     <g id="line2d_12">
      <g>
       <use style="stroke:#000000;stroke-width:0.8;" x="38.57777" xlink:href="#m96e9b73684" y="91.438758"/>
      </g>
     </g>
     <g id="text_12">
      <!-- 3 -->
      <g transform="translate(25.21527 95.237977)scale(0.1 -0.1)">
       <use xlink:href="#DejaVuSans-33"/>
      </g>
     </g>
    </g>
    <g id="ytick_5">
     <g id="line2d_13">
      <g>
       <use style="stroke:#000000;stroke-width:0.8;" x="38.57777" xlink:href="#m96e9b73684" y="58.539869"/>
      </g>
     </g>
     <g id="text_13">
      <!-- 4 -->
      <g transform="translate(25.21527 62.339088)scale(0.1 -0.1)">
       <defs>
        <path d="M 2419 4116 
L 825 1625 
L 2419 1625 
L 2419 4116 
z
M 2253 4666 
L 3047 4666 
L 3047 1625 
L 3713 1625 
L 3713 1100 
L 3047 1100 
L 3047 0 
L 2419 0 
L 2419 1100 
L 313 1100 
L 313 1709 
L 2253 4666 
z
" id="DejaVuSans-34" transform="scale(0.015625)"/>
       </defs>
       <use xlink:href="#DejaVuSans-34"/>
      </g>
     </g>
    </g>
    <g id="ytick_6">
     <g id="line2d_14">
      <g>
       <use style="stroke:#000000;stroke-width:0.8;" x="38.57777" xlink:href="#m96e9b73684" y="25.64098"/>
      </g>
     </g>
     <g id="text_14">
      <!-- 5 -->
      <g transform="translate(25.21527 29.440199)scale(0.1 -0.1)">
       <use xlink:href="#DejaVuSans-35"/>
      </g>
     </g>
    </g>
    <g id="text_15">
     <!-- Density -->
     <g transform="translate(19.135582 126.896796)rotate(-90)scale(0.1 -0.1)">
      <defs>
       <path d="M 1259 4147 
L 1259 519 
L 2022 519 
Q 2988 519 3436 956 
Q 3884 1394 3884 2338 
Q 3884 3275 3436 3711 
Q 2988 4147 2022 4147 
L 1259 4147 
z
M 628 4666 
L 1925 4666 
Q 3281 4666 3915 4102 
Q 4550 3538 4550 2338 
Q 4550 1131 3912 565 
Q 3275 0 1925 0 
L 628 0 
L 628 4666 
z
" id="DejaVuSans-44" transform="scale(0.015625)"/>
       <path d="M 3597 1894 
L 3597 1613 
L 953 1613 
Q 991 1019 1311 708 
Q 1631 397 2203 397 
Q 2534 397 2845 478 
Q 3156 559 3463 722 
L 3463 178 
Q 3153 47 2828 -22 
Q 2503 -91 2169 -91 
Q 1331 -91 842 396 
Q 353 884 353 1716 
Q 353 2575 817 3079 
Q 1281 3584 2069 3584 
Q 2775 3584 3186 3129 
Q 3597 2675 3597 1894 
z
M 3022 2063 
Q 3016 2534 2758 2815 
Q 2500 3097 2075 3097 
Q 1594 3097 1305 2825 
Q 1016 2553 972 2059 
L 3022 2063 
z
" id="DejaVuSans-65" transform="scale(0.015625)"/>
       <path d="M 3513 2113 
L 3513 0 
L 2938 0 
L 2938 2094 
Q 2938 2591 2744 2837 
Q 2550 3084 2163 3084 
Q 1697 3084 1428 2787 
Q 1159 2491 1159 1978 
L 1159 0 
L 581 0 
L 581 3500 
L 1159 3500 
L 1159 2956 
Q 1366 3272 1645 3428 
Q 1925 3584 2291 3584 
Q 2894 3584 3203 3211 
Q 3513 2838 3513 2113 
z
" id="DejaVuSans-6e" transform="scale(0.015625)"/>
       <path d="M 2834 3397 
L 2834 2853 
Q 2591 2978 2328 3040 
Q 2066 3103 1784 3103 
Q 1356 3103 1142 2972 
Q 928 2841 928 2578 
Q 928 2378 1081 2264 
Q 1234 2150 1697 2047 
L 1894 2003 
Q 2506 1872 2764 1633 
Q 3022 1394 3022 966 
Q 3022 478 2636 193 
Q 2250 -91 1575 -91 
Q 1294 -91 989 -36 
Q 684 19 347 128 
L 347 722 
Q 666 556 975 473 
Q 1284 391 1588 391 
Q 1994 391 2212 530 
Q 2431 669 2431 922 
Q 2431 1156 2273 1281 
Q 2116 1406 1581 1522 
L 1381 1569 
Q 847 1681 609 1914 
Q 372 2147 372 2553 
Q 372 3047 722 3315 
Q 1072 3584 1716 3584 
Q 2034 3584 2315 3537 
Q 2597 3491 2834 3397 
z
" id="DejaVuSans-73" transform="scale(0.015625)"/>
       <path d="M 603 3500 
L 1178 3500 
L 1178 0 
L 603 0 
L 603 3500 
z
M 603 4863 
L 1178 4863 
L 1178 4134 
L 603 4134 
L 603 4863 
z
" id="DejaVuSans-69" transform="scale(0.015625)"/>
       <path d="M 1172 4494 
L 1172 3500 
L 2356 3500 
L 2356 3053 
L 1172 3053 
L 1172 1153 
Q 1172 725 1289 603 
Q 1406 481 1766 481 
L 2356 481 
L 2356 0 
L 1766 0 
Q 1100 0 847 248 
Q 594 497 594 1153 
L 594 3053 
L 172 3053 
L 172 3500 
L 594 3500 
L 594 4494 
L 1172 4494 
z
" id="DejaVuSans-74" transform="scale(0.015625)"/>
       <path d="M 2059 -325 
Q 1816 -950 1584 -1140 
Q 1353 -1331 966 -1331 
L 506 -1331 
L 506 -850 
L 844 -850 
Q 1081 -850 1212 -737 
Q 1344 -625 1503 -206 
L 1606 56 
L 191 3500 
L 800 3500 
L 1894 763 
L 2988 3500 
L 3597 3500 
L 2059 -325 
z
" id="DejaVuSans-79" transform="scale(0.015625)"/>
      </defs>
      <use xlink:href="#DejaVuSans-44"/>
      <use x="77.001953" xlink:href="#DejaVuSans-65"/>
      <use x="138.525391" xlink:href="#DejaVuSans-6e"/>
      <use x="201.904297" xlink:href="#DejaVuSans-73"/>
      <use x="254.003906" xlink:href="#DejaVuSans-69"/>
      <use x="281.787109" xlink:href="#DejaVuSans-74"/>
      <use x="320.996094" xlink:href="#DejaVuSans-79"/>
     </g>
    </g>
   </g>
   <g id="LineCollection_1">
    <path clip-path="url(#p1fb796f237)" d="M 38.57777 109.947647 
L 273.080876 109.947647 
" style="fill:none;stroke:#1f77b4;stroke-opacity:0.5;stroke-width:1.5;"/>
   </g>
   <g id="LineCollection_2">
    <path clip-path="url(#p1fb796f237)" d="M 38.57777 165.765877 
L 273.080876 165.765877 
" style="fill:none;stroke:#ff7f0e;stroke-opacity:0.5;stroke-width:1.5;"/>
   </g>
   <g id="LineCollection_3">
    <path clip-path="url(#p1fb796f237)" d="M 38.57777 147.197153 
L 273.080876 147.197153 
" style="fill:none;stroke:#2ca02c;stroke-opacity:0.5;stroke-width:1.5;"/>
   </g>
   <g id="line2d_15">
    <path clip-path="url(#p1fb796f237)" d="M 38.57777 109.923052 
L 72.078213 109.955704 
L 73.150228 61.428541 
L 73.686235 45.874384 
L 74.08824 38.903686 
L 74.490245 35.26026 
L 74.758249 34.289899 
L 75.160254 78.442131 
L 75.56226 97.422752 
L 75.964265 107.652674 
L 76.36627 113.615821 
L 76.768276 117.047976 
L 77.170281 118.787783 
L 77.438284 119.254918 
L 77.706288 119.290278 
L 77.974292 118.977421 
L 78.376297 118.00957 
L 79.046306 115.555095 
L 81.190334 106.934749 
L 82.128347 104.317097 
L 82.932357 102.706065 
L 83.736368 101.574282 
L 84.540379 100.825599 
L 85.344389 100.385643 
L 86.1484 100.203055 
L 86.952411 100.245776 
L 87.756421 100.49677 
L 88.694434 101.045768 
L 89.632446 101.875893 
L 90.570458 103.001618 
L 91.642473 104.671866 
L 92.714487 106.764393 
L 94.054505 109.93566 
L 98.074558 120.030854 
L 98.744567 120.998489 
L 99.280574 121.468454 
L 99.816581 121.641789 
L 100.218586 121.571455 
L 100.754593 121.215422 
L 101.2906 120.579425 
L 101.960609 119.445886 
L 102.898622 117.399304 
L 106.382668 109.302181 
L 107.454682 107.527422 
L 108.392695 106.344845 
L 109.330707 105.487718 
L 110.268719 104.927927 
L 111.206732 104.637728 
L 112.144744 104.593382 
L 113.082757 104.775826 
L 114.020769 105.169611 
L 115.092783 105.860475 
L 116.298799 106.916223 
L 117.772819 108.536964 
L 122.328879 113.893761 
L 123.266892 114.547267 
L 124.070902 114.863114 
L 124.874913 114.932945 
L 125.678924 114.757129 
L 126.482934 114.355486 
L 127.554948 113.533725 
L 129.028968 112.072046 
L 131.843005 109.23754 
L 133.183023 108.21172 
L 134.389039 107.552495 
L 135.595055 107.155855 
L 136.801071 107.016264 
L 138.007087 107.118151 
L 139.213103 107.438799 
L 140.687122 108.083429 
L 142.429145 109.106478 
L 146.5832 111.652354 
L 147.923218 112.149378 
L 149.129234 112.351572 
L 150.33525 112.30506 
L 151.541266 112.028083 
L 153.015286 111.447255 
L 156.097326 109.894452 
L 158.107353 109.035406 
L 159.715374 108.585205 
L 161.189394 108.392367 
L 162.663413 108.410218 
L 164.271435 108.646373 
L 166.281461 109.18626 
L 172.311541 110.997754 
L 173.919563 111.15754 
L 175.527584 111.104809 
L 177.403609 110.810966 
L 180.351648 110.079162 
L 183.433689 109.390231 
L 185.577717 109.146399 
L 187.587744 109.136998 
L 189.865774 109.354914 
L 193.483822 109.974107 
L 196.699864 110.447237 
L 199.111896 110.570218 
L 201.523928 110.460698 
L 205.007974 110.042376 
L 209.162029 109.588923 
L 211.976067 109.513582 
L 215.058108 109.66413 
L 224.036226 110.268731 
L 227.520273 110.152071 
L 236.498392 109.719446 
L 240.786448 109.839039 
L 248.960557 110.113782 
L 254.186626 109.991598 
L 261.690725 109.829516 
L 268.658818 109.968103 
L 273.080876 110.033051 
L 273.080876 110.033051 
" style="fill:none;stroke:#1f77b4;stroke-linecap:square;stroke-width:1.5;"/>
   </g>
   <g id="line2d_16">
    <path clip-path="url(#p1fb796f237)" d="M 38.57777 165.792132 
L 72.346217 165.563728 
L 72.614221 165.018055 
L 73.016226 163.614203 
L 73.552233 160.806749 
L 74.222242 156.066107 
L 75.160254 148.880543 
L 75.428258 148.046159 
L 75.696261 147.796181 
L 75.964265 148.032595 
L 76.232268 148.670379 
L 76.634274 150.212923 
L 77.304283 153.789117 
L 79.582313 166.83094 
L 80.520325 170.689223 
L 81.324336 173.189063 
L 82.128347 175.053445 
L 82.932357 176.390903 
L 83.736368 177.293104 
L 84.540379 177.830061 
L 85.210387 178.034698 
L 85.880396 178.039291 
L 86.684407 177.796758 
L 87.488418 177.291531 
L 88.292428 176.522796 
L 89.230441 175.282743 
L 90.168453 173.657221 
L 91.240467 171.312643 
L 92.446483 168.073367 
L 94.054505 162.996461 
L 96.198533 156.276896 
L 97.136545 154.105847 
L 97.806554 153.079842 
L 98.342561 152.631267 
L 98.744567 152.524531 
L 99.146572 152.615255 
L 99.682579 153.03188 
L 100.218586 153.757748 
L 100.888595 155.030952 
L 101.960609 157.657207 
L 105.444655 166.713548 
L 106.51667 168.772969 
L 107.588684 170.351087 
L 108.526696 171.344469 
L 109.464709 171.995794 
L 110.268719 172.29858 
L 111.07273 172.379739 
L 111.876741 172.25144 
L 112.814753 171.851725 
L 113.752766 171.198991 
L 114.82478 170.168042 
L 116.030796 168.691794 
L 117.638817 166.346882 
L 120.452854 162.171825 
L 121.524868 160.975286 
L 122.462881 160.270541 
L 123.266892 159.967108 
L 123.9369 159.937691 
L 124.606909 160.107261 
L 125.41092 160.55174 
L 126.348932 161.347671 
L 127.68895 162.834563 
L 131.306998 167.048852 
L 132.513014 168.074479 
L 133.71903 168.804069 
L 134.791044 169.191448 
L 135.863058 169.335104 
L 136.935073 169.245762 
L 138.007087 168.940932 
L 139.213103 168.370793 
L 140.687122 167.413357 
L 143.233156 165.41642 
L 145.243183 163.970813 
L 146.5832 163.290388 
L 147.655215 162.981563 
L 148.727229 162.905734 
L 149.799243 163.058982 
L 151.005259 163.470676 
L 152.479279 164.223665 
L 157.437344 166.976083 
L 158.911364 167.441603 
L 160.251382 167.645513 
L 161.591399 167.639015 
L 163.065419 167.408242 
L 164.807442 166.890373 
L 167.487477 165.810089 
L 170.033511 164.851639 
L 171.641532 164.462482 
L 173.115552 164.318311 
L 174.589571 164.387259 
L 176.331595 164.705677 
L 178.877628 165.443403 
L 182.227673 166.380325 
L 184.237699 166.697203 
L 186.113724 166.76445 
L 188.123751 166.602433 
L 190.669784 166.145606 
L 195.761852 165.167846 
L 197.90588 165.02319 
L 200.049909 165.102183 
L 202.729944 165.438727 
L 208.358019 166.207171 
L 210.904053 166.289672 
L 213.71809 166.143857 
L 223.500219 165.383998 
L 226.716262 165.530614 
L 235.158374 166.039521 
L 238.910424 165.946075 
L 248.692553 165.570956 
L 253.784621 165.736424 
L 260.216706 165.908767 
L 265.84478 165.798586 
L 273.080876 165.662911 
L 273.080876 165.662911 
" style="fill:none;stroke:#ff7f0e;stroke-linecap:square;stroke-width:1.5;"/>
   </g>
   <g id="line2d_17">
    <path clip-path="url(#p1fb796f237)" d="M 38.57777 147.207565 
L 52.647956 147.183402 
L 73.016226 147.038027 
L 73.418231 146.743704 
L 73.954238 146.006563 
L 74.490245 144.7707 
L 75.026253 142.938218 
L 76.098267 138.143436 
L 77.304283 133.003443 
L 77.974292 130.952952 
L 78.510299 129.879224 
L 78.912304 129.419608 
L 79.314309 129.248625 
L 79.716315 129.348817 
L 80.11832 129.696206 
L 80.654327 130.495541 
L 81.324336 131.936441 
L 82.262348 134.542629 
L 83.87037 139.809467 
L 86.416403 148.067778 
L 87.890423 152.076332 
L 89.096439 154.753114 
L 90.168453 156.621596 
L 91.106466 157.832318 
L 91.910476 158.5359 
L 92.580485 158.874476 
L 93.250494 158.977713 
L 93.920503 158.836389 
L 94.590512 158.442548 
L 95.260521 157.79103 
L 96.064531 156.669213 
L 97.002544 154.911824 
L 98.074558 152.392305 
L 99.816581 147.618565 
L 101.558604 143.074535 
L 102.496616 141.171129 
L 103.300627 139.984446 
L 103.970636 139.341915 
L 104.640645 139.017701 
L 105.176652 138.978652 
L 105.846661 139.18384 
L 106.51667 139.639335 
L 107.32068 140.460574 
L 108.392695 141.902832 
L 110.134718 144.702217 
L 112.680751 148.766604 
L 114.020769 150.518988 
L 115.226785 151.735518 
L 116.164797 152.405838 
L 117.10281 152.813092 
L 117.906821 152.943218 
L 118.710831 152.867665 
L 119.514842 152.588329 
L 120.452854 152.016038 
L 121.524868 151.069634 
L 122.864886 149.544045 
L 127.018941 144.495614 
L 128.090955 143.666258 
L 129.028968 143.2209 
L 129.832979 143.057389 
L 130.770991 143.112896 
L 131.709003 143.408094 
L 132.781018 143.98819 
L 134.255037 145.082682 
L 139.213103 149.041566 
L 140.553121 149.707391 
L 141.759137 150.055835 
L 142.831151 150.151122 
L 143.903165 150.044187 
L 145.109181 149.697377 
L 146.449199 149.073591 
L 148.325224 147.924336 
L 151.407264 146.022962 
L 152.881284 145.405327 
L 154.0873 145.125838 
L 155.293316 145.064283 
L 156.633334 145.236148 
L 158.107353 145.664514 
L 160.251382 146.560946 
L 163.735428 148.035557 
L 165.477451 148.515208 
L 167.085472 148.717394 
L 168.559492 148.685974 
L 170.167513 148.433765 
L 172.177539 147.879318 
L 177.269607 146.351255 
L 179.01163 146.119887 
L 180.753653 146.114572 
L 182.629678 146.33514 
L 185.309713 146.905798 
L 189.329767 147.755039 
L 191.473795 147.971567 
L 193.617824 147.957723 
L 196.029855 147.70037 
L 203.93596 146.635403 
L 206.347992 146.666547 
L 209.296031 146.938398 
L 215.460113 147.569201 
L 218.408152 147.5935 
L 221.892198 147.373053 
L 228.458285 146.911715 
L 231.808329 146.941727 
L 237.570406 147.277125 
L 241.992464 147.412472 
L 246.414523 147.30216 
L 254.722633 147.042138 
L 260.216706 147.167849 
L 267.586803 147.307424 
L 273.080876 147.207717 
L 273.080876 147.207717 
" style="fill:none;stroke:#2ca02c;stroke-linecap:square;stroke-width:1.5;"/>
   </g>
   <g id="patch_3">
    <path d="M 38.57777 190.135425 
L 38.57777 25.64098 
" style="fill:none;stroke:#000000;stroke-linecap:square;stroke-linejoin:miter;stroke-width:0.8;"/>
   </g>
   <g id="patch_4">
    <path d="M 273.080876 190.135425 
L 273.080876 25.64098 
" style="fill:none;stroke:#000000;stroke-linecap:square;stroke-linejoin:miter;stroke-width:0.8;"/>
   </g>
   <g id="patch_5">
    <path d="M 38.57777 190.135425 
L 273.080876 190.135425 
" style="fill:none;stroke:#000000;stroke-linecap:square;stroke-linejoin:miter;stroke-width:0.8;"/>
   </g>
   <g id="patch_6">
    <path d="M 38.57777 25.64098 
L 273.080876 25.64098 
" style="fill:none;stroke:#000000;stroke-linecap:square;stroke-linejoin:miter;stroke-width:0.8;"/>
   </g>
   <g id="text_16">
    <!-- Food Chain -->
    <g transform="translate(122.39901 19.64098)scale(0.12 -0.12)">
     <defs>
      <path d="M 628 4666 
L 3309 4666 
L 3309 4134 
L 1259 4134 
L 1259 2759 
L 3109 2759 
L 3109 2228 
L 1259 2228 
L 1259 0 
L 628 0 
L 628 4666 
z
" id="DejaVuSans-46" transform="scale(0.015625)"/>
      <path d="M 1959 3097 
Q 1497 3097 1228 2736 
Q 959 2375 959 1747 
Q 959 1119 1226 758 
Q 1494 397 1959 397 
Q 2419 397 2687 759 
Q 2956 1122 2956 1747 
Q 2956 2369 2687 2733 
Q 2419 3097 1959 3097 
z
M 1959 3584 
Q 2709 3584 3137 3096 
Q 3566 2609 3566 1747 
Q 3566 888 3137 398 
Q 2709 -91 1959 -91 
Q 1206 -91 779 398 
Q 353 888 353 1747 
Q 353 2609 779 3096 
Q 1206 3584 1959 3584 
z
" id="DejaVuSans-6f" transform="scale(0.015625)"/>
      <path d="M 2906 2969 
L 2906 4863 
L 3481 4863 
L 3481 0 
L 2906 0 
L 2906 525 
Q 2725 213 2448 61 
Q 2172 -91 1784 -91 
Q 1150 -91 751 415 
Q 353 922 353 1747 
Q 353 2572 751 3078 
Q 1150 3584 1784 3584 
Q 2172 3584 2448 3432 
Q 2725 3281 2906 2969 
z
M 947 1747 
Q 947 1113 1208 752 
Q 1469 391 1925 391 
Q 2381 391 2643 752 
Q 2906 1113 2906 1747 
Q 2906 2381 2643 2742 
Q 2381 3103 1925 3103 
Q 1469 3103 1208 2742 
Q 947 2381 947 1747 
z
" id="DejaVuSans-64" transform="scale(0.015625)"/>
      <path id="DejaVuSans-20" transform="scale(0.015625)"/>
      <path d="M 4122 4306 
L 4122 3641 
Q 3803 3938 3442 4084 
Q 3081 4231 2675 4231 
Q 1875 4231 1450 3742 
Q 1025 3253 1025 2328 
Q 1025 1406 1450 917 
Q 1875 428 2675 428 
Q 3081 428 3442 575 
Q 3803 722 4122 1019 
L 4122 359 
Q 3791 134 3420 21 
Q 3050 -91 2638 -91 
Q 1578 -91 968 557 
Q 359 1206 359 2328 
Q 359 3453 968 4101 
Q 1578 4750 2638 4750 
Q 3056 4750 3426 4639 
Q 3797 4528 4122 4306 
z
" id="DejaVuSans-43" transform="scale(0.015625)"/>
      <path d="M 3513 2113 
L 3513 0 
L 2938 0 
L 2938 2094 
Q 2938 2591 2744 2837 
Q 2550 3084 2163 3084 
Q 1697 3084 1428 2787 
Q 1159 2491 1159 1978 
L 1159 0 
L 581 0 
L 581 4863 
L 1159 4863 
L 1159 2956 
Q 1366 3272 1645 3428 
Q 1925 3584 2291 3584 
Q 2894 3584 3203 3211 
Q 3513 2838 3513 2113 
z
" id="DejaVuSans-68" transform="scale(0.015625)"/>
      <path d="M 2194 1759 
Q 1497 1759 1228 1600 
Q 959 1441 959 1056 
Q 959 750 1161 570 
Q 1363 391 1709 391 
Q 2188 391 2477 730 
Q 2766 1069 2766 1631 
L 2766 1759 
L 2194 1759 
z
M 3341 1997 
L 3341 0 
L 2766 0 
L 2766 531 
Q 2569 213 2275 61 
Q 1981 -91 1556 -91 
Q 1019 -91 701 211 
Q 384 513 384 1019 
Q 384 1609 779 1909 
Q 1175 2209 1959 2209 
L 2766 2209 
L 2766 2266 
Q 2766 2663 2505 2880 
Q 2244 3097 1772 3097 
Q 1472 3097 1187 3025 
Q 903 2953 641 2809 
L 641 3341 
Q 956 3463 1253 3523 
Q 1550 3584 1831 3584 
Q 2591 3584 2966 3190 
Q 3341 2797 3341 1997 
z
" id="DejaVuSans-61" transform="scale(0.015625)"/>
     </defs>
     <use xlink:href="#DejaVuSans-46"/>
     <use x="53.894531" xlink:href="#DejaVuSans-6f"/>
     <use x="115.076172" xlink:href="#DejaVuSans-6f"/>
     <use x="176.257812" xlink:href="#DejaVuSans-64"/>
     <use x="239.734375" xlink:href="#DejaVuSans-20"/>
     <use x="271.521484" xlink:href="#DejaVuSans-43"/>
     <use x="341.345703" xlink:href="#DejaVuSans-68"/>
     <use x="404.724609" xlink:href="#DejaVuSans-61"/>
     <use x="466.003906" xlink:href="#DejaVuSans-69"/>
     <use x="493.787109" xlink:href="#DejaVuSans-6e"/>
    </g>
   </g>
   <g id="legend_1">
    <g id="patch_7">
     <path d="M 227.098064 77.675355 
L 266.080876 77.675355 
Q 268.080876 77.675355 268.080876 75.675355 
L 268.080876 32.64098 
Q 268.080876 30.64098 266.080876 30.64098 
L 227.098064 30.64098 
Q 225.098064 30.64098 225.098064 32.64098 
L 225.098064 75.675355 
Q 225.098064 77.675355 227.098064 77.675355 
z
" style="fill:#ffffff;opacity:0.8;stroke:#cccccc;stroke-linejoin:miter;"/>
    </g>
    <g id="line2d_18">
     <path d="M 229.098064 38.739418 
L 249.098064 38.739418 
" style="fill:none;stroke:#1f77b4;stroke-linecap:square;stroke-width:1.5;"/>
    </g>
    <g id="line2d_19"/>
    <g id="text_17">
     <!-- R -->
     <g transform="translate(257.098064 42.239418)scale(0.1 -0.1)">
      <defs>
       <path d="M 2841 2188 
Q 3044 2119 3236 1894 
Q 3428 1669 3622 1275 
L 4263 0 
L 3584 0 
L 2988 1197 
Q 2756 1666 2539 1819 
Q 2322 1972 1947 1972 
L 1259 1972 
L 1259 0 
L 628 0 
L 628 4666 
L 2053 4666 
Q 2853 4666 3247 4331 
Q 3641 3997 3641 3322 
Q 3641 2881 3436 2590 
Q 3231 2300 2841 2188 
z
M 1259 4147 
L 1259 2491 
L 2053 2491 
Q 2509 2491 2742 2702 
Q 2975 2913 2975 3322 
Q 2975 3731 2742 3939 
Q 2509 4147 2053 4147 
L 1259 4147 
z
" id="DejaVuSans-52" transform="scale(0.015625)"/>
      </defs>
      <use xlink:href="#DejaVuSans-52"/>
     </g>
    </g>
    <g id="line2d_20">
     <path d="M 229.098064 53.417543 
L 249.098064 53.417543 
" style="fill:none;stroke:#ff7f0e;stroke-linecap:square;stroke-width:1.5;"/>
    </g>
    <g id="line2d_21"/>
    <g id="text_18">
     <!-- C -->
     <g transform="translate(257.098064 56.917543)scale(0.1 -0.1)">
      <use xlink:href="#DejaVuSans-43"/>
     </g>
    </g>
    <g id="line2d_22">
     <path d="M 229.098064 68.095668 
L 249.098064 68.095668 
" style="fill:none;stroke:#2ca02c;stroke-linecap:square;stroke-width:1.5;"/>
    </g>
    <g id="line2d_23"/>
    <g id="text_19">
     <!-- P -->
     <g transform="translate(257.098064 71.595668)scale(0.1 -0.1)">
      <defs>
       <path d="M 1259 4147 
L 1259 2394 
L 2053 2394 
Q 2494 2394 2734 2622 
Q 2975 2850 2975 3272 
Q 2975 3691 2734 3919 
Q 2494 4147 2053 4147 
L 1259 4147 
z
M 628 4666 
L 2053 4666 
Q 2838 4666 3239 4311 
Q 3641 3956 3641 3272 
Q 3641 2581 3239 2228 
Q 2838 1875 2053 1875 
L 1259 1875 
L 1259 0 
L 628 0 
L 628 4666 
z
" id="DejaVuSans-50" transform="scale(0.015625)"/>
      </defs>
      <use xlink:href="#DejaVuSans-50"/>
     </g>
    </g>
   </g>
  </g>
  <g id="axes_2">
   <g id="patch_8">
    <path d="M 38.57777 397.719281 
L 273.080876 397.719281 
L 273.080876 233.224837 
L 38.57777 233.224837 
z
" style="fill:#ffffff;"/>
   </g>
   <g id="matplotlib.axis_3">
    <g id="xtick_9">
     <g id="line2d_24">
      <g>
       <use style="stroke:#000000;stroke-width:0.8;" x="38.57777" xlink:href="#m58652419b0" y="397.719281"/>
      </g>
     </g>
     <g id="text_20">
      <!-- 175 -->
      <g transform="translate(29.03402 412.317718)scale(0.1 -0.1)">
       <use xlink:href="#DejaVuSans-31"/>
       <use x="63.623047" xlink:href="#DejaVuSans-37"/>
       <use x="127.246094" xlink:href="#DejaVuSans-35"/>
      </g>
     </g>
    </g>
    <g id="xtick_10">
     <g id="line2d_25">
      <g>
       <use style="stroke:#000000;stroke-width:0.8;" x="72.078213" xlink:href="#m58652419b0" y="397.719281"/>
      </g>
     </g>
     <g id="text_21">
      <!-- 200 -->
      <g transform="translate(62.534463 412.317718)scale(0.1 -0.1)">
       <use xlink:href="#DejaVuSans-32"/>
       <use x="63.623047" xlink:href="#DejaVuSans-30"/>
       <use x="127.246094" xlink:href="#DejaVuSans-30"/>
      </g>
     </g>
    </g>
    <g id="xtick_11">
     <g id="line2d_26">
      <g>
       <use style="stroke:#000000;stroke-width:0.8;" x="105.578657" xlink:href="#m58652419b0" y="397.719281"/>
      </g>
     </g>
     <g id="text_22">
      <!-- 225 -->
      <g transform="translate(96.034907 412.317718)scale(0.1 -0.1)">
       <use xlink:href="#DejaVuSans-32"/>
       <use x="63.623047" xlink:href="#DejaVuSans-32"/>
       <use x="127.246094" xlink:href="#DejaVuSans-35"/>
      </g>
     </g>
    </g>
    <g id="xtick_12">
     <g id="line2d_27">
      <g>
       <use style="stroke:#000000;stroke-width:0.8;" x="139.079101" xlink:href="#m58652419b0" y="397.719281"/>
      </g>
     </g>
     <g id="text_23">
      <!-- 250 -->
      <g transform="translate(129.535351 412.317718)scale(0.1 -0.1)">
       <use xlink:href="#DejaVuSans-32"/>
       <use x="63.623047" xlink:href="#DejaVuSans-35"/>
       <use x="127.246094" xlink:href="#DejaVuSans-30"/>
      </g>
     </g>
    </g>
    <g id="xtick_13">
     <g id="line2d_28">
      <g>
       <use style="stroke:#000000;stroke-width:0.8;" x="172.579545" xlink:href="#m58652419b0" y="397.719281"/>
      </g>
     </g>
     <g id="text_24">
      <!-- 275 -->
      <g transform="translate(163.035795 412.317718)scale(0.1 -0.1)">
       <use xlink:href="#DejaVuSans-32"/>
       <use x="63.623047" xlink:href="#DejaVuSans-37"/>
       <use x="127.246094" xlink:href="#DejaVuSans-35"/>
      </g>
     </g>
    </g>
    <g id="xtick_14">
     <g id="line2d_29">
      <g>
       <use style="stroke:#000000;stroke-width:0.8;" x="206.079989" xlink:href="#m58652419b0" y="397.719281"/>
      </g>
     </g>
     <g id="text_25">
      <!-- 300 -->
      <g transform="translate(196.536239 412.317718)scale(0.1 -0.1)">
       <use xlink:href="#DejaVuSans-33"/>
       <use x="63.623047" xlink:href="#DejaVuSans-30"/>
       <use x="127.246094" xlink:href="#DejaVuSans-30"/>
      </g>
     </g>
    </g>
    <g id="xtick_15">
     <g id="line2d_30">
      <g>
       <use style="stroke:#000000;stroke-width:0.8;" x="239.580432" xlink:href="#m58652419b0" y="397.719281"/>
      </g>
     </g>
     <g id="text_26">
      <!-- 325 -->
      <g transform="translate(230.036682 412.317718)scale(0.1 -0.1)">
       <use xlink:href="#DejaVuSans-33"/>
       <use x="63.623047" xlink:href="#DejaVuSans-32"/>
       <use x="127.246094" xlink:href="#DejaVuSans-35"/>
      </g>
     </g>
    </g>
    <g id="xtick_16">
     <g id="line2d_31">
      <g>
       <use style="stroke:#000000;stroke-width:0.8;" x="273.080876" xlink:href="#m58652419b0" y="397.719281"/>
      </g>
     </g>
     <g id="text_27">
      <!-- 350 -->
      <g transform="translate(263.537126 412.317718)scale(0.1 -0.1)">
       <use xlink:href="#DejaVuSans-33"/>
       <use x="63.623047" xlink:href="#DejaVuSans-35"/>
       <use x="127.246094" xlink:href="#DejaVuSans-30"/>
      </g>
     </g>
    </g>
   </g>
   <g id="matplotlib.axis_4">
    <g id="ytick_7">
     <g id="line2d_32">
      <g>
       <use style="stroke:#000000;stroke-width:0.8;" x="38.57777" xlink:href="#m96e9b73684" y="397.719281"/>
      </g>
     </g>
     <g id="text_28">
      <!-- 0 -->
      <g transform="translate(25.21527 401.5185)scale(0.1 -0.1)">
       <use xlink:href="#DejaVuSans-30"/>
      </g>
     </g>
    </g>
    <g id="ytick_8">
     <g id="line2d_33">
      <g>
       <use style="stroke:#000000;stroke-width:0.8;" x="38.57777" xlink:href="#m96e9b73684" y="364.820392"/>
      </g>
     </g>
     <g id="text_29">
      <!-- 1 -->
      <g transform="translate(25.21527 368.619611)scale(0.1 -0.1)">
       <use xlink:href="#DejaVuSans-31"/>
      </g>
     </g>
    </g>
    <g id="ytick_9">
     <g id="line2d_34">
      <g>
       <use style="stroke:#000000;stroke-width:0.8;" x="38.57777" xlink:href="#m96e9b73684" y="331.921503"/>
      </g>
     </g>
     <g id="text_30">
      <!-- 2 -->
      <g transform="translate(25.21527 335.720722)scale(0.1 -0.1)">
       <use xlink:href="#DejaVuSans-32"/>
      </g>
     </g>
    </g>
    <g id="ytick_10">
     <g id="line2d_35">
      <g>
       <use style="stroke:#000000;stroke-width:0.8;" x="38.57777" xlink:href="#m96e9b73684" y="299.022614"/>
      </g>
     </g>
     <g id="text_31">
      <!-- 3 -->
      <g transform="translate(25.21527 302.821833)scale(0.1 -0.1)">
       <use xlink:href="#DejaVuSans-33"/>
      </g>
     </g>
    </g>
    <g id="ytick_11">
     <g id="line2d_36">
      <g>
       <use style="stroke:#000000;stroke-width:0.8;" x="38.57777" xlink:href="#m96e9b73684" y="266.123725"/>
      </g>
     </g>
     <g id="text_32">
      <!-- 4 -->
      <g transform="translate(25.21527 269.922944)scale(0.1 -0.1)">
       <use xlink:href="#DejaVuSans-34"/>
      </g>
     </g>
    </g>
    <g id="ytick_12">
     <g id="line2d_37">
      <g>
       <use style="stroke:#000000;stroke-width:0.8;" x="38.57777" xlink:href="#m96e9b73684" y="233.224837"/>
      </g>
     </g>
     <g id="text_33">
      <!-- 5 -->
      <g transform="translate(25.21527 237.024055)scale(0.1 -0.1)">
       <use xlink:href="#DejaVuSans-35"/>
      </g>
     </g>
    </g>
    <g id="text_34">
     <!-- Density -->
     <g transform="translate(19.135582 334.480653)rotate(-90)scale(0.1 -0.1)">
      <use xlink:href="#DejaVuSans-44"/>
      <use x="77.001953" xlink:href="#DejaVuSans-65"/>
      <use x="138.525391" xlink:href="#DejaVuSans-6e"/>
      <use x="201.904297" xlink:href="#DejaVuSans-73"/>
      <use x="254.003906" xlink:href="#DejaVuSans-69"/>
      <use x="281.787109" xlink:href="#DejaVuSans-74"/>
      <use x="320.996094" xlink:href="#DejaVuSans-79"/>
     </g>
    </g>
   </g>
   <g id="LineCollection_4">
    <path clip-path="url(#p69ac26f510)" d="M 38.57777 319.746121 
L 273.080876 319.746121 
" style="fill:none;stroke:#1f77b4;stroke-opacity:0.5;stroke-width:1.5;"/>
   </g>
   <g id="LineCollection_5">
    <path clip-path="url(#p69ac26f510)" d="M 38.57777 372.438918 
L 273.080876 372.438918 
" style="fill:none;stroke:#ff7f0e;stroke-opacity:0.5;stroke-width:1.5;"/>
   </g>
   <g id="LineCollection_6">
    <path clip-path="url(#p69ac26f510)" d="M 38.57777 350.264099 
L 273.080876 350.264099 
" style="fill:none;stroke:#2ca02c;stroke-opacity:0.5;stroke-width:1.5;"/>
   </g>
   <g id="line2d_38">
    <path clip-path="url(#p69ac26f510)" d="M 38.57777 319.748108 
L 72.078213 319.745823 
L 73.284229 269.019999 
L 73.820237 255.619359 
L 74.222242 249.920784 
L 74.624247 247.271525 
L 74.758249 246.942222 
L 75.160254 289.026209 
L 75.56226 307.655822 
L 75.964265 317.892755 
L 76.36627 323.956277 
L 76.768276 327.503957 
L 77.170281 329.34682 
L 77.438284 329.870416 
L 77.706288 329.951042 
L 77.974292 329.671976 
L 78.376297 328.733869 
L 79.046306 326.279159 
L 81.324336 316.971932 
L 82.262348 314.330237 
L 83.066359 312.678878 
L 83.87037 311.48719 
L 84.67438 310.662382 
L 85.478391 310.134204 
L 86.282402 309.854492 
L 87.086412 309.792857 
L 87.890423 309.932322 
L 88.828435 310.340177 
L 89.766448 311.013085 
L 90.70446 311.959707 
L 91.776474 313.390885 
L 92.848489 315.202802 
L 94.054505 317.674743 
L 95.796528 321.841896 
L 97.940556 326.907537 
L 98.878568 328.596214 
L 99.682579 329.583403 
L 100.352588 330.018855 
L 100.888595 330.097549 
L 101.424602 329.938213 
L 101.960609 329.554256 
L 102.630618 328.794939 
L 103.568631 327.326103 
L 105.176652 324.244419 
L 107.052677 320.74779 
L 108.392695 318.729422 
L 109.464709 317.475644 
L 110.536723 316.541179 
L 111.608737 315.907551 
L 112.680751 315.551788 
L 113.752766 315.451259 
L 114.82478 315.584876 
L 115.896794 315.932158 
L 117.10281 316.550657 
L 118.576829 317.579064 
L 120.586856 319.293605 
L 123.266892 321.562685 
L 124.606909 322.405114 
L 125.678924 322.837804 
L 126.750938 323.022411 
L 127.822952 322.955757 
L 128.894966 322.661319 
L 130.234984 322.043056 
L 132.379012 320.748814 
L 134.925046 319.261461 
L 136.533067 318.563573 
L 138.007087 318.150035 
L 139.481106 317.964054 
L 140.955126 317.995674 
L 142.563147 318.248164 
L 144.573174 318.806445 
L 150.871257 320.761875 
L 152.61328 320.953635 
L 154.355303 320.915269 
L 156.36533 320.630729 
L 159.715374 319.876435 
L 162.797415 319.273018 
L 165.075445 319.048269 
L 167.353476 319.04474 
L 170.033511 319.276313 
L 178.475623 320.205112 
L 181.28966 320.168193 
L 185.175712 319.867647 
L 190.401781 319.493485 
L 194.019829 319.476182 
L 198.977895 319.709007 
L 204.739971 319.926096 
L 209.564035 319.857261 
L 219.74817 319.635344 
L 244.270495 319.701478 
L 273.080876 319.730224 
L 273.080876 319.730224 
" style="fill:none;stroke:#1f77b4;stroke-linecap:square;stroke-width:1.5;"/>
   </g>
   <g id="line2d_39">
    <path clip-path="url(#p69ac26f510)" d="M 38.57777 372.436921 
L 72.212215 372.388971 
L 72.480219 372.000394 
L 72.882224 370.767352 
L 73.418231 368.07504 
L 74.08824 363.317783 
L 75.294256 354.07486 
L 75.56226 353.54398 
L 75.696261 353.500192 
L 75.964265 353.791216 
L 76.36627 355.001131 
L 76.902277 357.624049 
L 78.108293 365.195134 
L 79.314309 372.169351 
L 80.252322 376.351158 
L 81.190334 379.467419 
L 81.994345 381.430538 
L 82.798355 382.864328 
L 83.602366 383.864683 
L 84.406377 384.504087 
L 85.210387 384.83437 
L 86.014398 384.890344 
L 86.818409 384.693183 
L 87.622419 384.253358 
L 88.42643 383.573274 
L 89.364442 382.471932 
L 90.302455 381.030505 
L 91.374469 378.959831 
L 92.580485 376.109524 
L 94.188506 371.627247 
L 96.73454 364.440947 
L 97.672553 362.462684 
L 98.342561 361.46923 
L 98.878568 360.968953 
L 99.414576 360.745741 
L 99.950583 360.799536 
L 100.48659 361.117012 
L 101.156599 361.845605 
L 101.960609 363.114823 
L 103.166625 365.538029 
L 106.382668 372.262251 
L 107.588684 374.217546 
L 108.660698 375.583316 
L 109.732712 376.593908 
L 110.670725 377.19595 
L 111.608737 377.547788 
L 112.54675 377.663963 
L 113.484762 377.559807 
L 114.556776 377.191765 
L 115.62879 376.583935 
L 116.968808 375.536758 
L 118.576829 373.970251 
L 122.462881 370.047399 
L 123.668897 369.213468 
L 124.740911 368.756686 
L 125.678924 368.600106 
L 126.616936 368.669051 
L 127.68895 368.997898 
L 128.894966 369.623103 
L 130.636989 370.815056 
L 133.853032 373.055213 
L 135.461053 373.87726 
L 136.801071 374.331405 
L 138.141089 374.56172 
L 139.481106 374.573689 
L 140.955126 374.358301 
L 142.697149 373.852975 
L 145.109181 372.883324 
L 148.325224 371.616639 
L 150.067247 371.175719 
L 151.675268 371.002806 
L 153.283289 371.061289 
L 155.159314 371.373869 
L 157.973351 372.112914 
L 161.323396 372.938608 
L 163.467424 373.23674 
L 165.611453 373.300777 
L 167.889483 373.135204 
L 171.105525 372.646529 
L 175.393582 372.020527 
L 177.939616 371.881924 
L 180.619651 371.966139 
L 184.639705 372.358049 
L 189.061763 372.729872 
L 192.411808 372.772796 
L 196.431861 372.579647 
L 203.399953 372.227746 
L 207.68801 372.279512 
L 219.212163 372.564972 
L 237.972411 372.441057 
L 247.084532 372.47756 
L 264.370761 372.440905 
L 273.080876 372.454838 
L 273.080876 372.454838 
" style="fill:none;stroke:#ff7f0e;stroke-linecap:square;stroke-width:1.5;"/>
   </g>
   <g id="line2d_40">
    <path clip-path="url(#p69ac26f510)" d="M 38.57777 350.263152 
L 72.748222 350.147223 
L 73.150228 349.884975 
L 73.552233 349.410404 
L 74.08824 348.368486 
L 74.624247 346.765701 
L 75.428258 343.344995 
L 77.304283 334.901825 
L 77.974292 332.883994 
L 78.510299 331.849487 
L 78.912304 331.416506 
L 79.314309 331.263875 
L 79.716315 331.37069 
L 80.11832 331.711347 
L 80.654327 332.481098 
L 81.324336 333.857025 
L 82.262348 336.34042 
L 83.87037 341.395189 
L 86.818409 350.696982 
L 88.292428 354.601319 
L 89.498444 357.243312 
L 90.570458 359.12034 
L 91.508471 360.369584 
L 92.312482 361.130674 
L 93.116492 361.5917 
L 93.786501 361.737597 
L 94.45651 361.660261 
L 95.126519 361.35549 
L 95.796528 360.822229 
L 96.600538 359.886197 
L 97.538551 358.410967 
L 98.610565 356.295239 
L 100.352588 352.269738 
L 102.228613 348.038416 
L 103.300627 346.094975 
L 104.238639 344.826477 
L 105.04265 344.097221 
L 105.712659 343.745089 
L 106.382668 343.616135 
L 107.052677 343.694003 
L 107.856687 344.02971 
L 108.7947 344.69984 
L 110.000716 345.88786 
L 111.876741 348.130111 
L 114.556776 351.31738 
L 116.030796 352.73113 
L 117.236812 353.603435 
L 118.308826 354.129068 
L 119.38084 354.402862 
L 120.452854 354.420268 
L 121.524868 354.189014 
L 122.596883 353.730239 
L 123.9369 352.8917 
L 125.812925 351.404924 
L 128.626963 349.175889 
L 129.96698 348.38694 
L 131.172996 347.917273 
L 132.379012 347.696869 
L 133.585028 347.718857 
L 134.925046 347.992072 
L 136.533067 348.581161 
L 139.213103 349.869695 
L 141.759137 351.016852 
L 143.50116 351.569092 
L 145.109181 351.843779 
L 146.717202 351.876433 
L 148.325224 351.68362 
L 150.33525 351.197429 
L 156.767335 349.425011 
L 158.64336 349.254119 
L 160.519385 349.302049 
L 162.797415 349.594204 
L 170.837522 350.86288 
L 173.249554 350.887768 
L 176.063591 350.678461 
L 184.505703 349.872416 
L 187.587744 349.916903 
L 192.411808 350.254178 
L 197.10187 350.500988 
L 200.987921 350.474356 
L 214.656102 350.144827 
L 227.654274 350.34074 
L 242.528471 350.234593 
L 255.928649 350.28049 
L 272.276866 350.268818 
L 273.080876 350.271923 
L 273.080876 350.271923 
" style="fill:none;stroke:#2ca02c;stroke-linecap:square;stroke-width:1.5;"/>
   </g>
   <g id="patch_9">
    <path d="M 38.57777 397.719281 
L 38.57777 233.224837 
" style="fill:none;stroke:#000000;stroke-linecap:square;stroke-linejoin:miter;stroke-width:0.8;"/>
   </g>
   <g id="patch_10">
    <path d="M 273.080876 397.719281 
L 273.080876 233.224837 
" style="fill:none;stroke:#000000;stroke-linecap:square;stroke-linejoin:miter;stroke-width:0.8;"/>
   </g>
   <g id="patch_11">
    <path d="M 38.57777 397.719281 
L 273.080876 397.719281 
" style="fill:none;stroke:#000000;stroke-linecap:square;stroke-linejoin:miter;stroke-width:0.8;"/>
   </g>
   <g id="patch_12">
    <path d="M 38.57777 233.224837 
L 273.080876 233.224837 
" style="fill:none;stroke:#000000;stroke-linecap:square;stroke-linejoin:miter;stroke-width:0.8;"/>
   </g>
   <g id="text_35">
    <!-- Passive Omnivory -->
    <g transform="translate(102.459323 227.224837)scale(0.12 -0.12)">
     <defs>
      <path d="M 191 3500 
L 800 3500 
L 1894 563 
L 2988 3500 
L 3597 3500 
L 2284 0 
L 1503 0 
L 191 3500 
z
" id="DejaVuSans-76" transform="scale(0.015625)"/>
      <path d="M 2522 4238 
Q 1834 4238 1429 3725 
Q 1025 3213 1025 2328 
Q 1025 1447 1429 934 
Q 1834 422 2522 422 
Q 3209 422 3611 934 
Q 4013 1447 4013 2328 
Q 4013 3213 3611 3725 
Q 3209 4238 2522 4238 
z
M 2522 4750 
Q 3503 4750 4090 4092 
Q 4678 3434 4678 2328 
Q 4678 1225 4090 567 
Q 3503 -91 2522 -91 
Q 1538 -91 948 565 
Q 359 1222 359 2328 
Q 359 3434 948 4092 
Q 1538 4750 2522 4750 
z
" id="DejaVuSans-4f" transform="scale(0.015625)"/>
      <path d="M 3328 2828 
Q 3544 3216 3844 3400 
Q 4144 3584 4550 3584 
Q 5097 3584 5394 3201 
Q 5691 2819 5691 2113 
L 5691 0 
L 5113 0 
L 5113 2094 
Q 5113 2597 4934 2840 
Q 4756 3084 4391 3084 
Q 3944 3084 3684 2787 
Q 3425 2491 3425 1978 
L 3425 0 
L 2847 0 
L 2847 2094 
Q 2847 2600 2669 2842 
Q 2491 3084 2119 3084 
Q 1678 3084 1418 2786 
Q 1159 2488 1159 1978 
L 1159 0 
L 581 0 
L 581 3500 
L 1159 3500 
L 1159 2956 
Q 1356 3278 1631 3431 
Q 1906 3584 2284 3584 
Q 2666 3584 2933 3390 
Q 3200 3197 3328 2828 
z
" id="DejaVuSans-6d" transform="scale(0.015625)"/>
      <path d="M 2631 2963 
Q 2534 3019 2420 3045 
Q 2306 3072 2169 3072 
Q 1681 3072 1420 2755 
Q 1159 2438 1159 1844 
L 1159 0 
L 581 0 
L 581 3500 
L 1159 3500 
L 1159 2956 
Q 1341 3275 1631 3429 
Q 1922 3584 2338 3584 
Q 2397 3584 2469 3576 
Q 2541 3569 2628 3553 
L 2631 2963 
z
" id="DejaVuSans-72" transform="scale(0.015625)"/>
     </defs>
     <use xlink:href="#DejaVuSans-50"/>
     <use x="55.802734" xlink:href="#DejaVuSans-61"/>
     <use x="117.082031" xlink:href="#DejaVuSans-73"/>
     <use x="169.181641" xlink:href="#DejaVuSans-73"/>
     <use x="221.28125" xlink:href="#DejaVuSans-69"/>
     <use x="249.064453" xlink:href="#DejaVuSans-76"/>
     <use x="308.244141" xlink:href="#DejaVuSans-65"/>
     <use x="369.767578" xlink:href="#DejaVuSans-20"/>
     <use x="401.554688" xlink:href="#DejaVuSans-4f"/>
     <use x="480.265625" xlink:href="#DejaVuSans-6d"/>
     <use x="577.677734" xlink:href="#DejaVuSans-6e"/>
     <use x="641.056641" xlink:href="#DejaVuSans-69"/>
     <use x="668.839844" xlink:href="#DejaVuSans-76"/>
     <use x="728.019531" xlink:href="#DejaVuSans-6f"/>
     <use x="789.201172" xlink:href="#DejaVuSans-72"/>
     <use x="830.314453" xlink:href="#DejaVuSans-79"/>
    </g>
   </g>
   <g id="legend_2">
    <g id="patch_13">
     <path d="M 227.098064 285.259212 
L 266.080876 285.259212 
Q 268.080876 285.259212 268.080876 283.259212 
L 268.080876 240.224837 
Q 268.080876 238.224837 266.080876 238.224837 
L 227.098064 238.224837 
Q 225.098064 238.224837 225.098064 240.224837 
L 225.098064 283.259212 
Q 225.098064 285.259212 227.098064 285.259212 
z
" style="fill:#ffffff;opacity:0.8;stroke:#cccccc;stroke-linejoin:miter;"/>
    </g>
    <g id="line2d_41">
     <path d="M 229.098064 246.323274 
L 249.098064 246.323274 
" style="fill:none;stroke:#1f77b4;stroke-linecap:square;stroke-width:1.5;"/>
    </g>
    <g id="line2d_42"/>
    <g id="text_36">
     <!-- R -->
     <g transform="translate(257.098064 249.823274)scale(0.1 -0.1)">
      <use xlink:href="#DejaVuSans-52"/>
     </g>
    </g>
    <g id="line2d_43">
     <path d="M 229.098064 261.001399 
L 249.098064 261.001399 
" style="fill:none;stroke:#ff7f0e;stroke-linecap:square;stroke-width:1.5;"/>
    </g>
    <g id="line2d_44"/>
    <g id="text_37">
     <!-- C -->
     <g transform="translate(257.098064 264.501399)scale(0.1 -0.1)">
      <use xlink:href="#DejaVuSans-43"/>
     </g>
    </g>
    <g id="line2d_45">
     <path d="M 229.098064 275.679524 
L 249.098064 275.679524 
" style="fill:none;stroke:#2ca02c;stroke-linecap:square;stroke-width:1.5;"/>
    </g>
    <g id="line2d_46"/>
    <g id="text_38">
     <!-- P -->
     <g transform="translate(257.098064 279.179524)scale(0.1 -0.1)">
      <use xlink:href="#DejaVuSans-50"/>
     </g>
    </g>
   </g>
  </g>
  <g id="axes_3">
   <g id="patch_14">
    <path d="M 38.57777 605.303137 
L 273.080876 605.303137 
L 273.080876 440.808693 
L 38.57777 440.808693 
z
" style="fill:#ffffff;"/>
   </g>
   <g id="matplotlib.axis_5">
    <g id="xtick_17">
     <g id="line2d_47">
      <g>
       <use style="stroke:#000000;stroke-width:0.8;" x="38.57777" xlink:href="#m58652419b0" y="605.303137"/>
      </g>
     </g>
     <g id="text_39">
      <!-- 175 -->
      <g transform="translate(29.03402 619.901575)scale(0.1 -0.1)">
       <use xlink:href="#DejaVuSans-31"/>
       <use x="63.623047" xlink:href="#DejaVuSans-37"/>
       <use x="127.246094" xlink:href="#DejaVuSans-35"/>
      </g>
     </g>
    </g>
    <g id="xtick_18">
     <g id="line2d_48">
      <g>
       <use style="stroke:#000000;stroke-width:0.8;" x="72.078213" xlink:href="#m58652419b0" y="605.303137"/>
      </g>
     </g>
     <g id="text_40">
      <!-- 200 -->
      <g transform="translate(62.534463 619.901575)scale(0.1 -0.1)">
       <use xlink:href="#DejaVuSans-32"/>
       <use x="63.623047" xlink:href="#DejaVuSans-30"/>
       <use x="127.246094" xlink:href="#DejaVuSans-30"/>
      </g>
     </g>
    </g>
    <g id="xtick_19">
     <g id="line2d_49">
      <g>
       <use style="stroke:#000000;stroke-width:0.8;" x="105.578657" xlink:href="#m58652419b0" y="605.303137"/>
      </g>
     </g>
     <g id="text_41">
      <!-- 225 -->
      <g transform="translate(96.034907 619.901575)scale(0.1 -0.1)">
       <use xlink:href="#DejaVuSans-32"/>
       <use x="63.623047" xlink:href="#DejaVuSans-32"/>
       <use x="127.246094" xlink:href="#DejaVuSans-35"/>
      </g>
     </g>
    </g>
    <g id="xtick_20">
     <g id="line2d_50">
      <g>
       <use style="stroke:#000000;stroke-width:0.8;" x="139.079101" xlink:href="#m58652419b0" y="605.303137"/>
      </g>
     </g>
     <g id="text_42">
      <!-- 250 -->
      <g transform="translate(129.535351 619.901575)scale(0.1 -0.1)">
       <use xlink:href="#DejaVuSans-32"/>
       <use x="63.623047" xlink:href="#DejaVuSans-35"/>
       <use x="127.246094" xlink:href="#DejaVuSans-30"/>
      </g>
     </g>
    </g>
    <g id="xtick_21">
     <g id="line2d_51">
      <g>
       <use style="stroke:#000000;stroke-width:0.8;" x="172.579545" xlink:href="#m58652419b0" y="605.303137"/>
      </g>
     </g>
     <g id="text_43">
      <!-- 275 -->
      <g transform="translate(163.035795 619.901575)scale(0.1 -0.1)">
       <use xlink:href="#DejaVuSans-32"/>
       <use x="63.623047" xlink:href="#DejaVuSans-37"/>
       <use x="127.246094" xlink:href="#DejaVuSans-35"/>
      </g>
     </g>
    </g>
    <g id="xtick_22">
     <g id="line2d_52">
      <g>
       <use style="stroke:#000000;stroke-width:0.8;" x="206.079989" xlink:href="#m58652419b0" y="605.303137"/>
      </g>
     </g>
     <g id="text_44">
      <!-- 300 -->
      <g transform="translate(196.536239 619.901575)scale(0.1 -0.1)">
       <use xlink:href="#DejaVuSans-33"/>
       <use x="63.623047" xlink:href="#DejaVuSans-30"/>
       <use x="127.246094" xlink:href="#DejaVuSans-30"/>
      </g>
     </g>
    </g>
    <g id="xtick_23">
     <g id="line2d_53">
      <g>
       <use style="stroke:#000000;stroke-width:0.8;" x="239.580432" xlink:href="#m58652419b0" y="605.303137"/>
      </g>
     </g>
     <g id="text_45">
      <!-- 325 -->
      <g transform="translate(230.036682 619.901575)scale(0.1 -0.1)">
       <use xlink:href="#DejaVuSans-33"/>
       <use x="63.623047" xlink:href="#DejaVuSans-32"/>
       <use x="127.246094" xlink:href="#DejaVuSans-35"/>
      </g>
     </g>
    </g>
    <g id="xtick_24">
     <g id="line2d_54">
      <g>
       <use style="stroke:#000000;stroke-width:0.8;" x="273.080876" xlink:href="#m58652419b0" y="605.303137"/>
      </g>
     </g>
     <g id="text_46">
      <!-- 350 -->
      <g transform="translate(263.537126 619.901575)scale(0.1 -0.1)">
       <use xlink:href="#DejaVuSans-33"/>
       <use x="63.623047" xlink:href="#DejaVuSans-35"/>
       <use x="127.246094" xlink:href="#DejaVuSans-30"/>
      </g>
     </g>
    </g>
    <g id="text_47">
     <!-- Time -->
     <g transform="translate(143.595729 633.5797)scale(0.1 -0.1)">
      <defs>
       <path d="M -19 4666 
L 3928 4666 
L 3928 4134 
L 2272 4134 
L 2272 0 
L 1638 0 
L 1638 4134 
L -19 4134 
L -19 4666 
z
" id="DejaVuSans-54" transform="scale(0.015625)"/>
      </defs>
      <use xlink:href="#DejaVuSans-54"/>
      <use x="57.958984" xlink:href="#DejaVuSans-69"/>
      <use x="85.742188" xlink:href="#DejaVuSans-6d"/>
      <use x="183.154297" xlink:href="#DejaVuSans-65"/>
     </g>
    </g>
   </g>
   <g id="matplotlib.axis_6">
    <g id="ytick_13">
     <g id="line2d_55">
      <g>
       <use style="stroke:#000000;stroke-width:0.8;" x="38.57777" xlink:href="#m96e9b73684" y="605.303137"/>
      </g>
     </g>
     <g id="text_48">
      <!-- 0 -->
      <g transform="translate(25.21527 609.102356)scale(0.1 -0.1)">
       <use xlink:href="#DejaVuSans-30"/>
      </g>
     </g>
    </g>
    <g id="ytick_14">
     <g id="line2d_56">
      <g>
       <use style="stroke:#000000;stroke-width:0.8;" x="38.57777" xlink:href="#m96e9b73684" y="572.404248"/>
      </g>
     </g>
     <g id="text_49">
      <!-- 1 -->
      <g transform="translate(25.21527 576.203467)scale(0.1 -0.1)">
       <use xlink:href="#DejaVuSans-31"/>
      </g>
     </g>
    </g>
    <g id="ytick_15">
     <g id="line2d_57">
      <g>
       <use style="stroke:#000000;stroke-width:0.8;" x="38.57777" xlink:href="#m96e9b73684" y="539.505359"/>
      </g>
     </g>
     <g id="text_50">
      <!-- 2 -->
      <g transform="translate(25.21527 543.304578)scale(0.1 -0.1)">
       <use xlink:href="#DejaVuSans-32"/>
      </g>
     </g>
    </g>
    <g id="ytick_16">
     <g id="line2d_58">
      <g>
       <use style="stroke:#000000;stroke-width:0.8;" x="38.57777" xlink:href="#m96e9b73684" y="506.606471"/>
      </g>
     </g>
     <g id="text_51">
      <!-- 3 -->
      <g transform="translate(25.21527 510.405689)scale(0.1 -0.1)">
       <use xlink:href="#DejaVuSans-33"/>
      </g>
     </g>
    </g>
    <g id="ytick_17">
     <g id="line2d_59">
      <g>
       <use style="stroke:#000000;stroke-width:0.8;" x="38.57777" xlink:href="#m96e9b73684" y="473.707582"/>
      </g>
     </g>
     <g id="text_52">
      <!-- 4 -->
      <g transform="translate(25.21527 477.5068)scale(0.1 -0.1)">
       <use xlink:href="#DejaVuSans-34"/>
      </g>
     </g>
    </g>
    <g id="ytick_18">
     <g id="line2d_60">
      <g>
       <use style="stroke:#000000;stroke-width:0.8;" x="38.57777" xlink:href="#m96e9b73684" y="440.808693"/>
      </g>
     </g>
     <g id="text_53">
      <!-- 5 -->
      <g transform="translate(25.21527 444.607912)scale(0.1 -0.1)">
       <use xlink:href="#DejaVuSans-35"/>
      </g>
     </g>
    </g>
    <g id="text_54">
     <!-- Density -->
     <g transform="translate(19.135582 542.064509)rotate(-90)scale(0.1 -0.1)">
      <use xlink:href="#DejaVuSans-44"/>
      <use x="77.001953" xlink:href="#DejaVuSans-65"/>
      <use x="138.525391" xlink:href="#DejaVuSans-6e"/>
      <use x="201.904297" xlink:href="#DejaVuSans-73"/>
      <use x="254.003906" xlink:href="#DejaVuSans-69"/>
      <use x="281.787109" xlink:href="#DejaVuSans-74"/>
      <use x="320.996094" xlink:href="#DejaVuSans-79"/>
     </g>
    </g>
   </g>
   <g id="LineCollection_7">
    <path clip-path="url(#pb42c009739)" d="M 38.57777 527.329977 
L 273.080876 527.329977 
" style="fill:none;stroke:#1f77b4;stroke-opacity:0.5;stroke-width:1.5;"/>
   </g>
   <g id="LineCollection_8">
    <path clip-path="url(#pb42c009739)" d="M 38.57777 580.022775 
L 273.080876 580.022775 
" style="fill:none;stroke:#ff7f0e;stroke-opacity:0.5;stroke-width:1.5;"/>
   </g>
   <g id="LineCollection_9">
    <path clip-path="url(#pb42c009739)" d="M 38.57777 557.847955 
L 273.080876 557.847955 
" style="fill:none;stroke:#2ca02c;stroke-opacity:0.5;stroke-width:1.5;"/>
   </g>
   <g id="line2d_61">
    <path clip-path="url(#pb42c009739)" d="M 38.57777 527.329979 
L 72.078213 527.329977 
L 73.150228 481.587274 
L 73.686235 466.947004 
L 74.08824 460.432157 
L 74.490245 457.131725 
L 74.758249 456.359774 
L 75.160254 497.674499 
L 75.56226 515.991161 
L 75.964265 525.954085 
L 76.36627 531.699849 
L 76.768276 534.877988 
L 77.170281 536.320532 
L 77.438284 536.577231 
L 77.706288 536.40491 
L 78.108293 535.547148 
L 78.6443 533.693228 
L 80.788329 525.531318 
L 81.592339 523.536447 
L 82.39635 522.139571 
L 83.200361 521.194135 
L 84.004371 520.577524 
L 84.942384 520.163443 
L 85.880396 520.004089 
L 86.818409 520.05815 
L 87.890423 520.357001 
L 88.962437 520.897793 
L 90.168453 521.787591 
L 91.374469 522.960137 
L 92.848489 524.721875 
L 97.538551 530.684431 
L 98.476563 531.41017 
L 99.280574 531.792703 
L 100.084584 531.940446 
L 100.888595 531.860006 
L 101.826608 531.51109 
L 102.898622 530.853287 
L 104.640645 529.473594 
L 107.052677 527.607325 
L 108.526696 526.740621 
L 110.000716 526.142469 
L 111.474735 525.807273 
L 112.948755 525.707621 
L 114.556776 525.822984 
L 116.566803 526.210027 
L 120.452854 527.269032 
L 122.998888 527.824689 
L 125.008915 528.045834 
L 127.152943 528.051567 
L 129.832979 527.811545 
L 136.801071 527.075103 
L 140.017113 527.029116 
L 144.573174 527.217712 
L 151.005259 527.457683 
L 156.499332 527.404038 
L 166.95147 527.27813 
L 195.493848 527.323964 
L 262.896741 527.330008 
L 273.080876 527.329934 
L 273.080876 527.329934 
" style="fill:none;stroke:#1f77b4;stroke-linecap:square;stroke-width:1.5;"/>
   </g>
   <g id="line2d_62">
    <path clip-path="url(#pb42c009739)" d="M 38.57777 580.022773 
L 72.212215 579.965906 
L 72.480219 579.527716 
L 72.882224 578.13829 
L 73.418231 575.120516 
L 74.08824 569.86892 
L 75.160254 560.747222 
L 75.428258 560.100297 
L 75.56226 560.056747 
L 75.830263 560.436835 
L 76.232268 561.936051 
L 76.768276 565.084463 
L 79.180308 580.828205 
L 79.984318 584.235852 
L 80.788329 586.684717 
L 81.592339 588.383271 
L 82.39635 589.511955 
L 83.066359 590.115241 
L 83.736368 590.472265 
L 84.540379 590.631623 
L 85.344389 590.542643 
L 86.1484 590.23792 
L 87.086412 589.638613 
L 88.158426 588.66089 
L 89.364442 587.220947 
L 90.70446 585.25178 
L 92.580485 582.028922 
L 95.260521 577.399276 
L 96.466537 575.784557 
L 97.404549 574.900163 
L 98.20856 574.446784 
L 98.878568 574.292916 
L 99.548577 574.336658 
L 100.352588 574.6264 
L 101.2906 575.23513 
L 102.496616 576.31176 
L 106.650671 580.292934 
L 107.990689 581.174085 
L 109.196705 581.723495 
L 110.402721 582.047232 
L 111.742739 582.165006 
L 113.082757 582.063767 
L 114.690778 581.715763 
L 116.968808 580.96044 
L 120.988861 579.594562 
L 122.864886 579.209737 
L 124.606909 579.066133 
L 126.616936 579.137982 
L 129.16297 579.475727 
L 134.791044 580.288827 
L 137.605082 580.422782 
L 140.821124 580.338436 
L 151.675268 579.851798 
L 158.107353 580.008247 
L 165.075445 580.094237 
L 206.347992 580.018489 
L 273.080876 580.022816 
L 273.080876 580.022816 
" style="fill:none;stroke:#ff7f0e;stroke-linecap:square;stroke-width:1.5;"/>
   </g>
   <g id="line2d_63">
    <path clip-path="url(#pb42c009739)" d="M 38.57777 557.847953 
L 72.748222 557.739254 
L 73.150228 557.468405 
L 73.552233 556.966429 
L 74.08824 555.856322 
L 74.624247 554.143304 
L 75.294256 551.086556 
L 77.170281 541.730413 
L 77.84029 539.629212 
L 78.376297 538.655547 
L 78.778302 538.323027 
L 79.180308 538.298023 
L 79.582313 538.541241 
L 80.11832 539.210261 
L 80.788329 540.467934 
L 81.726341 542.738745 
L 83.736368 548.386747 
L 86.014398 554.553003 
L 87.488418 557.961752 
L 88.828435 560.53149 
L 90.034451 562.358721 
L 91.106466 563.56715 
L 92.044478 564.288588 
L 92.848489 564.651637 
L 93.652499 564.778253 
L 94.45651 564.672528 
L 95.260521 564.34444 
L 96.198533 563.703818 
L 97.270547 562.682985 
L 98.744567 560.931661 
L 101.826608 557.148461 
L 103.032624 556.038627 
L 104.104638 555.3417 
L 105.04265 554.968471 
L 105.980663 554.80688 
L 107.052677 554.852516 
L 108.258693 555.142238 
L 109.732712 555.73529 
L 113.082757 557.4248 
L 115.226785 558.344725 
L 116.968808 558.848785 
L 118.576829 559.085742 
L 120.318853 559.102056 
L 122.194877 558.888815 
L 125.008915 558.311426 
L 128.760964 557.569159 
L 131.172996 557.331703 
L 133.585028 557.317406 
L 136.801071 557.538818 
L 143.50116 558.047596 
L 147.253209 558.063596 
L 164.003431 557.81029 
L 174.321568 557.882698 
L 198.977895 557.855421 
L 273.080876 557.847988 
L 273.080876 557.847988 
" style="fill:none;stroke:#2ca02c;stroke-linecap:square;stroke-width:1.5;"/>
   </g>
   <g id="patch_15">
    <path d="M 38.57777 605.303137 
L 38.57777 440.808693 
" style="fill:none;stroke:#000000;stroke-linecap:square;stroke-linejoin:miter;stroke-width:0.8;"/>
   </g>
   <g id="patch_16">
    <path d="M 273.080876 605.303137 
L 273.080876 440.808693 
" style="fill:none;stroke:#000000;stroke-linecap:square;stroke-linejoin:miter;stroke-width:0.8;"/>
   </g>
   <g id="patch_17">
    <path d="M 38.57777 605.303137 
L 273.080876 605.303137 
" style="fill:none;stroke:#000000;stroke-linecap:square;stroke-linejoin:miter;stroke-width:0.8;"/>
   </g>
   <g id="patch_18">
    <path d="M 38.57777 440.808693 
L 273.080876 440.808693 
" style="fill:none;stroke:#000000;stroke-linecap:square;stroke-linejoin:miter;stroke-width:0.8;"/>
   </g>
   <g id="text_55">
    <!-- Active Omnivory -->
    <g transform="translate(106.084635 434.808693)scale(0.12 -0.12)">
     <defs>
      <path d="M 2188 4044 
L 1331 1722 
L 3047 1722 
L 2188 4044 
z
M 1831 4666 
L 2547 4666 
L 4325 0 
L 3669 0 
L 3244 1197 
L 1141 1197 
L 716 0 
L 50 0 
L 1831 4666 
z
" id="DejaVuSans-41" transform="scale(0.015625)"/>
      <path d="M 3122 3366 
L 3122 2828 
Q 2878 2963 2633 3030 
Q 2388 3097 2138 3097 
Q 1578 3097 1268 2742 
Q 959 2388 959 1747 
Q 959 1106 1268 751 
Q 1578 397 2138 397 
Q 2388 397 2633 464 
Q 2878 531 3122 666 
L 3122 134 
Q 2881 22 2623 -34 
Q 2366 -91 2075 -91 
Q 1284 -91 818 406 
Q 353 903 353 1747 
Q 353 2603 823 3093 
Q 1294 3584 2113 3584 
Q 2378 3584 2631 3529 
Q 2884 3475 3122 3366 
z
" id="DejaVuSans-63" transform="scale(0.015625)"/>
     </defs>
     <use xlink:href="#DejaVuSans-41"/>
     <use x="66.658203" xlink:href="#DejaVuSans-63"/>
     <use x="121.638672" xlink:href="#DejaVuSans-74"/>
     <use x="160.847656" xlink:href="#DejaVuSans-69"/>
     <use x="188.630859" xlink:href="#DejaVuSans-76"/>
     <use x="247.810547" xlink:href="#DejaVuSans-65"/>
     <use x="309.333984" xlink:href="#DejaVuSans-20"/>
     <use x="341.121094" xlink:href="#DejaVuSans-4f"/>
     <use x="419.832031" xlink:href="#DejaVuSans-6d"/>
     <use x="517.244141" xlink:href="#DejaVuSans-6e"/>
     <use x="580.623047" xlink:href="#DejaVuSans-69"/>
     <use x="608.40625" xlink:href="#DejaVuSans-76"/>
     <use x="667.585938" xlink:href="#DejaVuSans-6f"/>
     <use x="728.767578" xlink:href="#DejaVuSans-72"/>
     <use x="769.880859" xlink:href="#DejaVuSans-79"/>
    </g>
   </g>
   <g id="legend_3">
    <g id="patch_19">
     <path d="M 227.098064 492.843068 
L 266.080876 492.843068 
Q 268.080876 492.843068 268.080876 490.843068 
L 268.080876 447.808693 
Q 268.080876 445.808693 266.080876 445.808693 
L 227.098064 445.808693 
Q 225.098064 445.808693 225.098064 447.808693 
L 225.098064 490.843068 
Q 225.098064 492.843068 227.098064 492.843068 
z
" style="fill:#ffffff;opacity:0.8;stroke:#cccccc;stroke-linejoin:miter;"/>
    </g>
    <g id="line2d_64">
     <path d="M 229.098064 453.90713 
L 249.098064 453.90713 
" style="fill:none;stroke:#1f77b4;stroke-linecap:square;stroke-width:1.5;"/>
    </g>
    <g id="line2d_65"/>
    <g id="text_56">
     <!-- R -->
     <g transform="translate(257.098064 457.40713)scale(0.1 -0.1)">
      <use xlink:href="#DejaVuSans-52"/>
     </g>
    </g>
    <g id="line2d_66">
     <path d="M 229.098064 468.585255 
L 249.098064 468.585255 
" style="fill:none;stroke:#ff7f0e;stroke-linecap:square;stroke-width:1.5;"/>
    </g>
    <g id="line2d_67"/>
    <g id="text_57">
     <!-- C -->
     <g transform="translate(257.098064 472.085255)scale(0.1 -0.1)">
      <use xlink:href="#DejaVuSans-43"/>
     </g>
    </g>
    <g id="line2d_68">
     <path d="M 229.098064 483.26338 
L 249.098064 483.26338 
" style="fill:none;stroke:#2ca02c;stroke-linecap:square;stroke-width:1.5;"/>
    </g>
    <g id="line2d_69"/>
    <g id="text_58">
     <!-- P -->
     <g transform="translate(257.098064 486.76338)scale(0.1 -0.1)">
      <use xlink:href="#DejaVuSans-50"/>
     </g>
    </g>
   </g>
  </g>
  <g id="axes_4">
   <g id="patch_20">
    <path d="M 330.696893 190.135425 
L 565.2 190.135425 
L 565.2 25.64098 
L 330.696893 25.64098 
z
" style="fill:#ffffff;"/>
   </g>
   <g id="patch_21">
    <path clip-path="url(#pf143888f3f)" d="M 341.356126 190.135425 
L 402.266023 190.135425 
L 402.266023 33.474049 
L 341.356126 33.474049 
z
" style="fill:#1f77b4;"/>
   </g>
   <g id="patch_22">
    <path clip-path="url(#pf143888f3f)" d="M 417.493498 190.135425 
L 478.403396 190.135425 
L 478.403396 74.059678 
L 417.493498 74.059678 
z
" style="fill:#1f77b4;"/>
   </g>
   <g id="patch_23">
    <path clip-path="url(#pf143888f3f)" d="M 493.63087 190.135425 
L 554.540768 190.135425 
L 554.540768 126.834277 
L 493.63087 126.834277 
z
" style="fill:#1f77b4;"/>
   </g>
   <g id="matplotlib.axis_7">
    <g id="xtick_25">
     <g id="line2d_70"/>
     <g id="text_59">
      <!-- FC -->
      <g transform="translate(365.443887 201.233862)scale(0.1 -0.1)">
       <use xlink:href="#DejaVuSans-46"/>
       <use x="57.519531" xlink:href="#DejaVuSans-43"/>
      </g>
     </g>
    </g>
    <g id="xtick_26">
     <g id="line2d_71"/>
     <g id="text_60">
      <!-- PO -->
      <g transform="translate(440.997665 201.233862)scale(0.1 -0.1)">
       <use xlink:href="#DejaVuSans-50"/>
       <use x="60.302734" xlink:href="#DejaVuSans-4f"/>
      </g>
     </g>
    </g>
    <g id="xtick_27">
     <g id="line2d_72"/>
     <g id="text_61">
      <!-- RO -->
      <g transform="translate(516.675663 201.233862)scale(0.1 -0.1)">
       <use xlink:href="#DejaVuSans-52"/>
       <use x="69.482422" xlink:href="#DejaVuSans-4f"/>
      </g>
     </g>
    </g>
   </g>
   <g id="matplotlib.axis_8">
    <g id="ytick_19">
     <g id="line2d_73">
      <g>
       <use style="stroke:#000000;stroke-width:0.8;" x="330.696893" xlink:href="#m96e9b73684" y="190.135425"/>
      </g>
     </g>
     <g id="text_62">
      <!-- 0 -->
      <g transform="translate(317.334393 193.934644)scale(0.1 -0.1)">
       <use xlink:href="#DejaVuSans-30"/>
      </g>
     </g>
    </g>
    <g id="ytick_20">
     <g id="line2d_74">
      <g>
       <use style="stroke:#000000;stroke-width:0.8;" x="330.696893" xlink:href="#m96e9b73684" y="162.48749"/>
      </g>
     </g>
     <g id="text_63">
      <!-- 5 -->
      <g transform="translate(317.334393 166.286709)scale(0.1 -0.1)">
       <use xlink:href="#DejaVuSans-35"/>
      </g>
     </g>
    </g>
    <g id="ytick_21">
     <g id="line2d_75">
      <g>
       <use style="stroke:#000000;stroke-width:0.8;" x="330.696893" xlink:href="#m96e9b73684" y="134.839555"/>
      </g>
     </g>
     <g id="text_64">
      <!-- 10 -->
      <g transform="translate(310.971893 138.638774)scale(0.1 -0.1)">
       <use xlink:href="#DejaVuSans-31"/>
       <use x="63.623047" xlink:href="#DejaVuSans-30"/>
      </g>
     </g>
    </g>
    <g id="ytick_22">
     <g id="line2d_76">
      <g>
       <use style="stroke:#000000;stroke-width:0.8;" x="330.696893" xlink:href="#m96e9b73684" y="107.191621"/>
      </g>
     </g>
     <g id="text_65">
      <!-- 15 -->
      <g transform="translate(310.971893 110.990839)scale(0.1 -0.1)">
       <use xlink:href="#DejaVuSans-31"/>
       <use x="63.623047" xlink:href="#DejaVuSans-35"/>
      </g>
     </g>
    </g>
    <g id="ytick_23">
     <g id="line2d_77">
      <g>
       <use style="stroke:#000000;stroke-width:0.8;" x="330.696893" xlink:href="#m96e9b73684" y="79.543686"/>
      </g>
     </g>
     <g id="text_66">
      <!-- 20 -->
      <g transform="translate(310.971893 83.342905)scale(0.1 -0.1)">
       <use xlink:href="#DejaVuSans-32"/>
       <use x="63.623047" xlink:href="#DejaVuSans-30"/>
      </g>
     </g>
    </g>
    <g id="ytick_24">
     <g id="line2d_78">
      <g>
       <use style="stroke:#000000;stroke-width:0.8;" x="330.696893" xlink:href="#m96e9b73684" y="51.895751"/>
      </g>
     </g>
     <g id="text_67">
      <!-- 25 -->
      <g transform="translate(310.971893 55.69497)scale(0.1 -0.1)">
       <use xlink:href="#DejaVuSans-32"/>
       <use x="63.623047" xlink:href="#DejaVuSans-35"/>
      </g>
     </g>
    </g>
    <g id="text_68">
     <!-- Local Return Time -->
     <g transform="translate(304.892206 152.851484)rotate(-90)scale(0.1 -0.1)">
      <defs>
       <path d="M 628 4666 
L 1259 4666 
L 1259 531 
L 3531 531 
L 3531 0 
L 628 0 
L 628 4666 
z
" id="DejaVuSans-4c" transform="scale(0.015625)"/>
       <path d="M 603 4863 
L 1178 4863 
L 1178 0 
L 603 0 
L 603 4863 
z
" id="DejaVuSans-6c" transform="scale(0.015625)"/>
       <path d="M 544 1381 
L 544 3500 
L 1119 3500 
L 1119 1403 
Q 1119 906 1312 657 
Q 1506 409 1894 409 
Q 2359 409 2629 706 
Q 2900 1003 2900 1516 
L 2900 3500 
L 3475 3500 
L 3475 0 
L 2900 0 
L 2900 538 
Q 2691 219 2414 64 
Q 2138 -91 1772 -91 
Q 1169 -91 856 284 
Q 544 659 544 1381 
z
M 1991 3584 
L 1991 3584 
z
" id="DejaVuSans-75" transform="scale(0.015625)"/>
      </defs>
      <use xlink:href="#DejaVuSans-4c"/>
      <use x="53.962891" xlink:href="#DejaVuSans-6f"/>
      <use x="115.144531" xlink:href="#DejaVuSans-63"/>
      <use x="170.125" xlink:href="#DejaVuSans-61"/>
      <use x="231.404297" xlink:href="#DejaVuSans-6c"/>
      <use x="259.1875" xlink:href="#DejaVuSans-20"/>
      <use x="290.974609" xlink:href="#DejaVuSans-52"/>
      <use x="355.957031" xlink:href="#DejaVuSans-65"/>
      <use x="417.480469" xlink:href="#DejaVuSans-74"/>
      <use x="456.689453" xlink:href="#DejaVuSans-75"/>
      <use x="520.068359" xlink:href="#DejaVuSans-72"/>
      <use x="559.431641" xlink:href="#DejaVuSans-6e"/>
      <use x="622.810547" xlink:href="#DejaVuSans-20"/>
      <use x="654.597656" xlink:href="#DejaVuSans-54"/>
      <use x="712.556641" xlink:href="#DejaVuSans-69"/>
      <use x="740.339844" xlink:href="#DejaVuSans-6d"/>
      <use x="837.751953" xlink:href="#DejaVuSans-65"/>
     </g>
    </g>
   </g>
   <g id="patch_24">
    <path d="M 330.696893 190.135425 
L 330.696893 25.64098 
" style="fill:none;stroke:#000000;stroke-linecap:square;stroke-linejoin:miter;stroke-width:0.8;"/>
   </g>
   <g id="patch_25">
    <path d="M 565.2 190.135425 
L 565.2 25.64098 
" style="fill:none;stroke:#000000;stroke-linecap:square;stroke-linejoin:miter;stroke-width:0.8;"/>
   </g>
   <g id="patch_26">
    <path d="M 330.696893 190.135425 
L 565.2 190.135425 
" style="fill:none;stroke:#000000;stroke-linecap:square;stroke-linejoin:miter;stroke-width:0.8;"/>
   </g>
   <g id="patch_27">
    <path d="M 330.696893 25.64098 
L 565.2 25.64098 
" style="fill:none;stroke:#000000;stroke-linecap:square;stroke-linejoin:miter;stroke-width:0.8;"/>
   </g>
  </g>
  <g id="axes_5">
   <g id="patch_28">
    <path d="M 330.696893 397.719281 
L 565.2 397.719281 
L 565.2 233.224837 
L 330.696893 233.224837 
z
" style="fill:#ffffff;"/>
   </g>
   <g id="patch_29">
    <path clip-path="url(#p8fa497e89d)" d="M 341.356126 397.719281 
L 360.736548 397.719281 
L 360.736548 257.892005 
L 341.356126 257.892005 
z
" style="fill:#1f77b4;stroke:#ffffff;stroke-linejoin:miter;"/>
   </g>
   <g id="patch_30">
    <path clip-path="url(#p8fa497e89d)" d="M 418.877814 397.719281 
L 438.258236 397.719281 
L 438.258236 280.221364 
L 418.877814 280.221364 
z
" style="fill:#1f77b4;stroke:#ffffff;stroke-linejoin:miter;"/>
   </g>
   <g id="patch_31">
    <path clip-path="url(#p8fa497e89d)" d="M 496.399502 397.719281 
L 515.779924 397.719281 
L 515.779924 338.945769 
L 496.399502 338.945769 
z
" style="fill:#1f77b4;stroke:#ffffff;stroke-linejoin:miter;"/>
   </g>
   <g id="patch_32">
    <path clip-path="url(#p8fa497e89d)" d="M 360.736548 397.719281 
L 380.11697 397.719281 
L 380.11697 241.057905 
L 360.736548 241.057905 
z
" style="fill:#ff7f0e;stroke:#ffffff;stroke-linejoin:miter;"/>
   </g>
   <g id="patch_33">
    <path clip-path="url(#p8fa497e89d)" d="M 438.258236 397.719281 
L 457.638658 397.719281 
L 457.638658 269.98339 
L 438.258236 269.98339 
z
" style="fill:#ff7f0e;stroke:#ffffff;stroke-linejoin:miter;"/>
   </g>
   <g id="patch_34">
    <path clip-path="url(#p8fa497e89d)" d="M 515.779924 397.719281 
L 535.160346 397.719281 
L 535.160346 330.060045 
L 515.779924 330.060045 
z
" style="fill:#ff7f0e;stroke:#ffffff;stroke-linejoin:miter;"/>
   </g>
   <g id="patch_35">
    <path clip-path="url(#p8fa497e89d)" d="M 380.11697 397.719281 
L 399.497392 397.719281 
L 399.497392 274.059248 
L 380.11697 274.059248 
z
" style="fill:#2ca02c;stroke:#ffffff;stroke-linejoin:miter;"/>
   </g>
   <g id="patch_36">
    <path clip-path="url(#p8fa497e89d)" d="M 457.638658 397.719281 
L 477.01908 397.719281 
L 477.01908 302.389092 
L 457.638658 302.389092 
z
" style="fill:#2ca02c;stroke:#ffffff;stroke-linejoin:miter;"/>
   </g>
   <g id="patch_37">
    <path clip-path="url(#p8fa497e89d)" d="M 535.160346 397.719281 
L 554.540768 397.719281 
L 554.540768 358.791574 
L 535.160346 358.791574 
z
" style="fill:#2ca02c;stroke:#ffffff;stroke-linejoin:miter;"/>
   </g>
   <g id="matplotlib.axis_9">
    <g id="xtick_28">
     <g id="line2d_79"/>
     <g id="text_69">
      <!-- FC -->
      <g transform="translate(364.059571 408.817718)scale(0.1 -0.1)">
       <use xlink:href="#DejaVuSans-46"/>
       <use x="57.519531" xlink:href="#DejaVuSans-43"/>
      </g>
     </g>
    </g>
    <g id="xtick_29">
     <g id="line2d_80"/>
     <g id="text_70">
      <!-- PO -->
      <g transform="translate(440.997665 408.817718)scale(0.1 -0.1)">
       <use xlink:href="#DejaVuSans-50"/>
       <use x="60.302734" xlink:href="#DejaVuSans-4f"/>
      </g>
     </g>
    </g>
    <g id="xtick_30">
     <g id="line2d_81"/>
     <g id="text_71">
      <!-- RO -->
      <g transform="translate(518.059979 408.817718)scale(0.1 -0.1)">
       <use xlink:href="#DejaVuSans-52"/>
       <use x="69.482422" xlink:href="#DejaVuSans-4f"/>
      </g>
     </g>
    </g>
   </g>
   <g id="matplotlib.axis_10">
    <g id="ytick_25">
     <g id="line2d_82">
      <g>
       <use style="stroke:#000000;stroke-width:0.8;" x="330.696893" xlink:href="#m96e9b73684" y="397.719281"/>
      </g>
     </g>
     <g id="text_72">
      <!-- 0 -->
      <g transform="translate(317.334393 401.5185)scale(0.1 -0.1)">
       <use xlink:href="#DejaVuSans-30"/>
      </g>
     </g>
    </g>
    <g id="ytick_26">
     <g id="line2d_83">
      <g>
       <use style="stroke:#000000;stroke-width:0.8;" x="330.696893" xlink:href="#m96e9b73684" y="364.409643"/>
      </g>
     </g>
     <g id="text_73">
      <!-- 2 -->
      <g transform="translate(317.334393 368.208861)scale(0.1 -0.1)">
       <use xlink:href="#DejaVuSans-32"/>
      </g>
     </g>
    </g>
    <g id="ytick_27">
     <g id="line2d_84">
      <g>
       <use style="stroke:#000000;stroke-width:0.8;" x="330.696893" xlink:href="#m96e9b73684" y="331.100004"/>
      </g>
     </g>
     <g id="text_74">
      <!-- 4 -->
      <g transform="translate(317.334393 334.899223)scale(0.1 -0.1)">
       <use xlink:href="#DejaVuSans-34"/>
      </g>
     </g>
    </g>
    <g id="ytick_28">
     <g id="line2d_85">
      <g>
       <use style="stroke:#000000;stroke-width:0.8;" x="330.696893" xlink:href="#m96e9b73684" y="297.790366"/>
      </g>
     </g>
     <g id="text_75">
      <!-- 6 -->
      <g transform="translate(317.334393 301.589585)scale(0.1 -0.1)">
       <defs>
        <path d="M 2113 2584 
Q 1688 2584 1439 2293 
Q 1191 2003 1191 1497 
Q 1191 994 1439 701 
Q 1688 409 2113 409 
Q 2538 409 2786 701 
Q 3034 994 3034 1497 
Q 3034 2003 2786 2293 
Q 2538 2584 2113 2584 
z
M 3366 4563 
L 3366 3988 
Q 3128 4100 2886 4159 
Q 2644 4219 2406 4219 
Q 1781 4219 1451 3797 
Q 1122 3375 1075 2522 
Q 1259 2794 1537 2939 
Q 1816 3084 2150 3084 
Q 2853 3084 3261 2657 
Q 3669 2231 3669 1497 
Q 3669 778 3244 343 
Q 2819 -91 2113 -91 
Q 1303 -91 875 529 
Q 447 1150 447 2328 
Q 447 3434 972 4092 
Q 1497 4750 2381 4750 
Q 2619 4750 2861 4703 
Q 3103 4656 3366 4563 
z
" id="DejaVuSans-36" transform="scale(0.015625)"/>
       </defs>
       <use xlink:href="#DejaVuSans-36"/>
      </g>
     </g>
    </g>
    <g id="ytick_29">
     <g id="line2d_86">
      <g>
       <use style="stroke:#000000;stroke-width:0.8;" x="330.696893" xlink:href="#m96e9b73684" y="264.480727"/>
      </g>
     </g>
     <g id="text_76">
      <!-- 8 -->
      <g transform="translate(317.334393 268.279946)scale(0.1 -0.1)">
       <defs>
        <path d="M 2034 2216 
Q 1584 2216 1326 1975 
Q 1069 1734 1069 1313 
Q 1069 891 1326 650 
Q 1584 409 2034 409 
Q 2484 409 2743 651 
Q 3003 894 3003 1313 
Q 3003 1734 2745 1975 
Q 2488 2216 2034 2216 
z
M 1403 2484 
Q 997 2584 770 2862 
Q 544 3141 544 3541 
Q 544 4100 942 4425 
Q 1341 4750 2034 4750 
Q 2731 4750 3128 4425 
Q 3525 4100 3525 3541 
Q 3525 3141 3298 2862 
Q 3072 2584 2669 2484 
Q 3125 2378 3379 2068 
Q 3634 1759 3634 1313 
Q 3634 634 3220 271 
Q 2806 -91 2034 -91 
Q 1263 -91 848 271 
Q 434 634 434 1313 
Q 434 1759 690 2068 
Q 947 2378 1403 2484 
z
M 1172 3481 
Q 1172 3119 1398 2916 
Q 1625 2713 2034 2713 
Q 2441 2713 2670 2916 
Q 2900 3119 2900 3481 
Q 2900 3844 2670 4047 
Q 2441 4250 2034 4250 
Q 1625 4250 1398 4047 
Q 1172 3844 1172 3481 
z
" id="DejaVuSans-38" transform="scale(0.015625)"/>
       </defs>
       <use xlink:href="#DejaVuSans-38"/>
      </g>
     </g>
    </g>
    <g id="text_77">
     <!-- Degree of Overshoot -->
     <g transform="translate(311.254706 367.546278)rotate(-90)scale(0.1 -0.1)">
      <defs>
       <path d="M 2906 1791 
Q 2906 2416 2648 2759 
Q 2391 3103 1925 3103 
Q 1463 3103 1205 2759 
Q 947 2416 947 1791 
Q 947 1169 1205 825 
Q 1463 481 1925 481 
Q 2391 481 2648 825 
Q 2906 1169 2906 1791 
z
M 3481 434 
Q 3481 -459 3084 -895 
Q 2688 -1331 1869 -1331 
Q 1566 -1331 1297 -1286 
Q 1028 -1241 775 -1147 
L 775 -588 
Q 1028 -725 1275 -790 
Q 1522 -856 1778 -856 
Q 2344 -856 2625 -561 
Q 2906 -266 2906 331 
L 2906 616 
Q 2728 306 2450 153 
Q 2172 0 1784 0 
Q 1141 0 747 490 
Q 353 981 353 1791 
Q 353 2603 747 3093 
Q 1141 3584 1784 3584 
Q 2172 3584 2450 3431 
Q 2728 3278 2906 2969 
L 2906 3500 
L 3481 3500 
L 3481 434 
z
" id="DejaVuSans-67" transform="scale(0.015625)"/>
       <path d="M 2375 4863 
L 2375 4384 
L 1825 4384 
Q 1516 4384 1395 4259 
Q 1275 4134 1275 3809 
L 1275 3500 
L 2222 3500 
L 2222 3053 
L 1275 3053 
L 1275 0 
L 697 0 
L 697 3053 
L 147 3053 
L 147 3500 
L 697 3500 
L 697 3744 
Q 697 4328 969 4595 
Q 1241 4863 1831 4863 
L 2375 4863 
z
" id="DejaVuSans-66" transform="scale(0.015625)"/>
      </defs>
      <use xlink:href="#DejaVuSans-44"/>
      <use x="77.001953" xlink:href="#DejaVuSans-65"/>
      <use x="138.525391" xlink:href="#DejaVuSans-67"/>
      <use x="202.001953" xlink:href="#DejaVuSans-72"/>
      <use x="240.865234" xlink:href="#DejaVuSans-65"/>
      <use x="302.388672" xlink:href="#DejaVuSans-65"/>
      <use x="363.912109" xlink:href="#DejaVuSans-20"/>
      <use x="395.699219" xlink:href="#DejaVuSans-6f"/>
      <use x="456.880859" xlink:href="#DejaVuSans-66"/>
      <use x="492.085938" xlink:href="#DejaVuSans-20"/>
      <use x="523.873047" xlink:href="#DejaVuSans-4f"/>
      <use x="602.583984" xlink:href="#DejaVuSans-76"/>
      <use x="661.763672" xlink:href="#DejaVuSans-65"/>
      <use x="723.287109" xlink:href="#DejaVuSans-72"/>
      <use x="764.400391" xlink:href="#DejaVuSans-73"/>
      <use x="816.5" xlink:href="#DejaVuSans-68"/>
      <use x="879.878906" xlink:href="#DejaVuSans-6f"/>
      <use x="941.060547" xlink:href="#DejaVuSans-6f"/>
      <use x="1002.242188" xlink:href="#DejaVuSans-74"/>
     </g>
    </g>
   </g>
   <g id="patch_38">
    <path d="M 330.696893 397.719281 
L 330.696893 233.224837 
" style="fill:none;stroke:#000000;stroke-linecap:square;stroke-linejoin:miter;stroke-width:0.8;"/>
   </g>
   <g id="patch_39">
    <path d="M 565.2 397.719281 
L 565.2 233.224837 
" style="fill:none;stroke:#000000;stroke-linecap:square;stroke-linejoin:miter;stroke-width:0.8;"/>
   </g>
   <g id="patch_40">
    <path d="M 330.696893 397.719281 
L 565.2 397.719281 
" style="fill:none;stroke:#000000;stroke-linecap:square;stroke-linejoin:miter;stroke-width:0.8;"/>
   </g>
   <g id="patch_41">
    <path d="M 330.696893 233.224837 
L 565.2 233.224837 
" style="fill:none;stroke:#000000;stroke-linecap:square;stroke-linejoin:miter;stroke-width:0.8;"/>
   </g>
   <g id="legend_4">
    <g id="patch_42">
     <path d="M 519.217187 285.259212 
L 558.2 285.259212 
Q 560.2 285.259212 560.2 283.259212 
L 560.2 240.224837 
Q 560.2 238.224837 558.2 238.224837 
L 519.217187 238.224837 
Q 517.217187 238.224837 517.217187 240.224837 
L 517.217187 283.259212 
Q 517.217187 285.259212 519.217187 285.259212 
z
" style="fill:#ffffff;opacity:0.8;stroke:#cccccc;stroke-linejoin:miter;"/>
    </g>
    <g id="patch_43">
     <path d="M 521.217187 249.823274 
L 541.217187 249.823274 
L 541.217187 242.823274 
L 521.217187 242.823274 
z
" style="fill:#1f77b4;stroke:#ffffff;stroke-linejoin:miter;"/>
    </g>
    <g id="text_78">
     <!-- R -->
     <g transform="translate(549.217187 249.823274)scale(0.1 -0.1)">
      <use xlink:href="#DejaVuSans-52"/>
     </g>
    </g>
    <g id="patch_44">
     <path d="M 521.217187 264.501399 
L 541.217187 264.501399 
L 541.217187 257.501399 
L 521.217187 257.501399 
z
" style="fill:#ff7f0e;stroke:#ffffff;stroke-linejoin:miter;"/>
    </g>
    <g id="text_79">
     <!-- C -->
     <g transform="translate(549.217187 264.501399)scale(0.1 -0.1)">
      <use xlink:href="#DejaVuSans-43"/>
     </g>
    </g>
    <g id="patch_45">
     <path d="M 521.217187 279.179524 
L 541.217187 279.179524 
L 541.217187 272.179524 
L 521.217187 272.179524 
z
" style="fill:#2ca02c;stroke:#ffffff;stroke-linejoin:miter;"/>
    </g>
    <g id="text_80">
     <!-- P -->
     <g transform="translate(549.217187 279.179524)scale(0.1 -0.1)">
      <use xlink:href="#DejaVuSans-50"/>
     </g>
    </g>
   </g>
  </g>
  <g id="axes_6">
   <g id="patch_46">
    <path d="M 330.696893 605.303137 
L 565.2 605.303137 
L 565.2 440.808693 
L 330.696893 440.808693 
z
" style="fill:#ffffff;"/>
   </g>
   <g id="patch_47">
    <path clip-path="url(#pea981d6f22)" d="M 341.356126 605.303137 
L 360.736548 605.303137 
L 360.736548 473.717572 
L 341.356126 473.717572 
z
" style="fill:#1f77b4;stroke:#ffffff;stroke-linejoin:miter;"/>
   </g>
   <g id="patch_48">
    <path clip-path="url(#pea981d6f22)" d="M 418.877814 605.303137 
L 438.258236 605.303137 
L 438.258236 480.691536 
L 418.877814 480.691536 
z
" style="fill:#1f77b4;stroke:#ffffff;stroke-linejoin:miter;"/>
   </g>
   <g id="patch_49">
    <path clip-path="url(#pea981d6f22)" d="M 496.399502 605.303137 
L 515.779924 605.303137 
L 515.779924 503.592967 
L 496.399502 503.592967 
z
" style="fill:#1f77b4;stroke:#ffffff;stroke-linejoin:miter;"/>
   </g>
   <g id="patch_50">
    <path clip-path="url(#pea981d6f22)" d="M 360.736548 605.303137 
L 380.11697 605.303137 
L 380.11697 448.641762 
L 360.736548 448.641762 
z
" style="fill:#ff7f0e;stroke:#ffffff;stroke-linejoin:miter;"/>
   </g>
   <g id="patch_51">
    <path clip-path="url(#pea981d6f22)" d="M 438.258236 605.303137 
L 457.638658 605.303137 
L 457.638658 457.040431 
L 438.258236 457.040431 
z
" style="fill:#ff7f0e;stroke:#ffffff;stroke-linejoin:miter;"/>
   </g>
   <g id="patch_52">
    <path clip-path="url(#pea981d6f22)" d="M 515.779924 605.303137 
L 535.160346 605.303137 
L 535.160346 505.015322 
L 515.779924 505.015322 
z
" style="fill:#ff7f0e;stroke:#ffffff;stroke-linejoin:miter;"/>
   </g>
   <g id="patch_53">
    <path clip-path="url(#pea981d6f22)" d="M 380.11697 605.303137 
L 399.497392 605.303137 
L 399.497392 482.560703 
L 380.11697 482.560703 
z
" style="fill:#2ca02c;stroke:#ffffff;stroke-linejoin:miter;"/>
   </g>
   <g id="patch_54">
    <path clip-path="url(#pea981d6f22)" d="M 457.638658 605.303137 
L 477.01908 605.303137 
L 477.01908 494.108352 
L 457.638658 494.108352 
z
" style="fill:#2ca02c;stroke:#ffffff;stroke-linejoin:miter;"/>
   </g>
   <g id="patch_55">
    <path clip-path="url(#pea981d6f22)" d="M 535.160346 605.303137 
L 554.540768 605.303137 
L 554.540768 544.06652 
L 535.160346 544.06652 
z
" style="fill:#2ca02c;stroke:#ffffff;stroke-linejoin:miter;"/>
   </g>
   <g id="matplotlib.axis_11">
    <g id="xtick_31">
     <g id="line2d_87"/>
     <g id="text_81">
      <!-- FC -->
      <g transform="translate(364.059571 616.401575)scale(0.1 -0.1)">
       <use xlink:href="#DejaVuSans-46"/>
       <use x="57.519531" xlink:href="#DejaVuSans-43"/>
      </g>
     </g>
    </g>
    <g id="xtick_32">
     <g id="line2d_88"/>
     <g id="text_82">
      <!-- PO -->
      <g transform="translate(440.997665 616.401575)scale(0.1 -0.1)">
       <use xlink:href="#DejaVuSans-50"/>
       <use x="60.302734" xlink:href="#DejaVuSans-4f"/>
      </g>
     </g>
    </g>
    <g id="xtick_33">
     <g id="line2d_89"/>
     <g id="text_83">
      <!-- RO -->
      <g transform="translate(518.059979 616.401575)scale(0.1 -0.1)">
       <use xlink:href="#DejaVuSans-52"/>
       <use x="69.482422" xlink:href="#DejaVuSans-4f"/>
      </g>
     </g>
    </g>
   </g>
   <g id="matplotlib.axis_12">
    <g id="ytick_30">
     <g id="line2d_90">
      <g>
       <use style="stroke:#000000;stroke-width:0.8;" x="330.696893" xlink:href="#m96e9b73684" y="605.303137"/>
      </g>
     </g>
     <g id="text_84">
      <!-- 0.0 -->
      <g transform="translate(307.793768 609.102356)scale(0.1 -0.1)">
       <defs>
        <path d="M 684 794 
L 1344 794 
L 1344 0 
L 684 0 
L 684 794 
z
" id="DejaVuSans-2e" transform="scale(0.015625)"/>
       </defs>
       <use xlink:href="#DejaVuSans-30"/>
       <use x="63.623047" xlink:href="#DejaVuSans-2e"/>
       <use x="95.410156" xlink:href="#DejaVuSans-30"/>
      </g>
     </g>
    </g>
    <g id="ytick_31">
     <g id="line2d_91">
      <g>
       <use style="stroke:#000000;stroke-width:0.8;" x="330.696893" xlink:href="#m96e9b73684" y="564.937924"/>
      </g>
     </g>
     <g id="text_85">
      <!-- 0.2 -->
      <g transform="translate(307.793768 568.737142)scale(0.1 -0.1)">
       <use xlink:href="#DejaVuSans-30"/>
       <use x="63.623047" xlink:href="#DejaVuSans-2e"/>
       <use x="95.410156" xlink:href="#DejaVuSans-32"/>
      </g>
     </g>
    </g>
    <g id="ytick_32">
     <g id="line2d_92">
      <g>
       <use style="stroke:#000000;stroke-width:0.8;" x="330.696893" xlink:href="#m96e9b73684" y="524.57271"/>
      </g>
     </g>
     <g id="text_86">
      <!-- 0.4 -->
      <g transform="translate(307.793768 528.371929)scale(0.1 -0.1)">
       <use xlink:href="#DejaVuSans-30"/>
       <use x="63.623047" xlink:href="#DejaVuSans-2e"/>
       <use x="95.410156" xlink:href="#DejaVuSans-34"/>
      </g>
     </g>
    </g>
    <g id="ytick_33">
     <g id="line2d_93">
      <g>
       <use style="stroke:#000000;stroke-width:0.8;" x="330.696893" xlink:href="#m96e9b73684" y="484.207497"/>
      </g>
     </g>
     <g id="text_87">
      <!-- 0.6 -->
      <g transform="translate(307.793768 488.006716)scale(0.1 -0.1)">
       <use xlink:href="#DejaVuSans-30"/>
       <use x="63.623047" xlink:href="#DejaVuSans-2e"/>
       <use x="95.410156" xlink:href="#DejaVuSans-36"/>
      </g>
     </g>
    </g>
    <g id="ytick_34">
     <g id="line2d_94">
      <g>
       <use style="stroke:#000000;stroke-width:0.8;" x="330.696893" xlink:href="#m96e9b73684" y="443.842283"/>
      </g>
     </g>
     <g id="text_88">
      <!-- 0.8 -->
      <g transform="translate(307.793768 447.641502)scale(0.1 -0.1)">
       <use xlink:href="#DejaVuSans-30"/>
       <use x="63.623047" xlink:href="#DejaVuSans-2e"/>
       <use x="95.410156" xlink:href="#DejaVuSans-38"/>
      </g>
     </g>
    </g>
    <g id="text_89">
     <!-- Max - Min -->
     <g transform="translate(301.714081 547.247321)rotate(-90)scale(0.1 -0.1)">
      <defs>
       <path d="M 628 4666 
L 1569 4666 
L 2759 1491 
L 3956 4666 
L 4897 4666 
L 4897 0 
L 4281 0 
L 4281 4097 
L 3078 897 
L 2444 897 
L 1241 4097 
L 1241 0 
L 628 0 
L 628 4666 
z
" id="DejaVuSans-4d" transform="scale(0.015625)"/>
       <path d="M 3513 3500 
L 2247 1797 
L 3578 0 
L 2900 0 
L 1881 1375 
L 863 0 
L 184 0 
L 1544 1831 
L 300 3500 
L 978 3500 
L 1906 2253 
L 2834 3500 
L 3513 3500 
z
" id="DejaVuSans-78" transform="scale(0.015625)"/>
       <path d="M 313 2009 
L 1997 2009 
L 1997 1497 
L 313 1497 
L 313 2009 
z
" id="DejaVuSans-2d" transform="scale(0.015625)"/>
      </defs>
      <use xlink:href="#DejaVuSans-4d"/>
      <use x="86.279297" xlink:href="#DejaVuSans-61"/>
      <use x="147.558594" xlink:href="#DejaVuSans-78"/>
      <use x="206.738281" xlink:href="#DejaVuSans-20"/>
      <use x="238.525391" xlink:href="#DejaVuSans-2d"/>
      <use x="274.609375" xlink:href="#DejaVuSans-20"/>
      <use x="306.396484" xlink:href="#DejaVuSans-4d"/>
      <use x="392.675781" xlink:href="#DejaVuSans-69"/>
      <use x="420.458984" xlink:href="#DejaVuSans-6e"/>
     </g>
    </g>
   </g>
   <g id="patch_56">
    <path d="M 330.696893 605.303137 
L 330.696893 440.808693 
" style="fill:none;stroke:#000000;stroke-linecap:square;stroke-linejoin:miter;stroke-width:0.8;"/>
   </g>
   <g id="patch_57">
    <path d="M 565.2 605.303137 
L 565.2 440.808693 
" style="fill:none;stroke:#000000;stroke-linecap:square;stroke-linejoin:miter;stroke-width:0.8;"/>
   </g>
   <g id="patch_58">
    <path d="M 330.696893 605.303137 
L 565.2 605.303137 
" style="fill:none;stroke:#000000;stroke-linecap:square;stroke-linejoin:miter;stroke-width:0.8;"/>
   </g>
   <g id="patch_59">
    <path d="M 330.696893 440.808693 
L 565.2 440.808693 
" style="fill:none;stroke:#000000;stroke-linecap:square;stroke-linejoin:miter;stroke-width:0.8;"/>
   </g>
   <g id="legend_5">
    <g id="patch_60">
     <path d="M 519.217187 492.843068 
L 558.2 492.843068 
Q 560.2 492.843068 560.2 490.843068 
L 560.2 447.808693 
Q 560.2 445.808693 558.2 445.808693 
L 519.217187 445.808693 
Q 517.217187 445.808693 517.217187 447.808693 
L 517.217187 490.843068 
Q 517.217187 492.843068 519.217187 492.843068 
z
" style="fill:#ffffff;opacity:0.8;stroke:#cccccc;stroke-linejoin:miter;"/>
    </g>
    <g id="patch_61">
     <path d="M 521.217187 457.40713 
L 541.217187 457.40713 
L 541.217187 450.40713 
L 521.217187 450.40713 
z
" style="fill:#1f77b4;stroke:#ffffff;stroke-linejoin:miter;"/>
    </g>
    <g id="text_90">
     <!-- R -->
     <g transform="translate(549.217187 457.40713)scale(0.1 -0.1)">
      <use xlink:href="#DejaVuSans-52"/>
     </g>
    </g>
    <g id="patch_62">
     <path d="M 521.217187 472.085255 
L 541.217187 472.085255 
L 541.217187 465.085255 
L 521.217187 465.085255 
z
" style="fill:#ff7f0e;stroke:#ffffff;stroke-linejoin:miter;"/>
    </g>
    <g id="text_91">
     <!-- C -->
     <g transform="translate(549.217187 472.085255)scale(0.1 -0.1)">
      <use xlink:href="#DejaVuSans-43"/>
     </g>
    </g>
    <g id="patch_63">
     <path d="M 521.217187 486.76338 
L 541.217187 486.76338 
L 541.217187 479.76338 
L 521.217187 479.76338 
z
" style="fill:#2ca02c;stroke:#ffffff;stroke-linejoin:miter;"/>
    </g>
    <g id="text_92">
     <!-- P -->
     <g transform="translate(549.217187 486.76338)scale(0.1 -0.1)">
      <use xlink:href="#DejaVuSans-50"/>
     </g>
    </g>
   </g>
  </g>
 </g>
 <defs>
  <clipPath id="p1fb796f237">
   <rect height="164.494444" width="234.503107" x="38.57777" y="25.64098"/>
  </clipPath>
  <clipPath id="p69ac26f510">
   <rect height="164.494444" width="234.503107" x="38.57777" y="233.224837"/>
  </clipPath>
  <clipPath id="pb42c009739">
   <rect height="164.494444" width="234.503107" x="38.57777" y="440.808693"/>
  </clipPath>
  <clipPath id="pf143888f3f">
   <rect height="164.494444" width="234.503107" x="330.696893" y="25.64098"/>
  </clipPath>
  <clipPath id="p8fa497e89d">
   <rect height="164.494444" width="234.503107" x="330.696893" y="233.224837"/>
  </clipPath>
  <clipPath id="pea981d6f22">
   <rect height="164.494444" width="234.503107" x="330.696893" y="440.808693"/>
  </clipPath>
 </defs>
</svg>
